<mxfile host="65bd71144e">
    <diagram id="QFduZ3HyZir-b-nvD13s" name="Page-1">
        <mxGraphModel dx="2290" dy="2385" grid="0" gridSize="10" guides="1" tooltips="1" connect="1" arrows="1" fold="1" page="1" pageScale="1" pageWidth="1600" pageHeight="900" background="#FFFFFF" math="0" shadow="0">
            <root>
                <mxCell id="0"/>
                <mxCell id="1" parent="0"/>
                <mxCell id="47" value="" style="whiteSpace=wrap;html=1;fillColor=none;strokeColor=none;movable=0;resizable=0;rotatable=0;deletable=0;editable=0;connectable=0;" vertex="1" parent="1">
                    <mxGeometry width="1600" height="900" as="geometry"/>
                </mxCell>
                <mxCell id="27" value="" style="rounded=0;whiteSpace=wrap;html=1;fillColor=none;dashed=1;dashPattern=8 8;" parent="1" vertex="1">
                    <mxGeometry x="285" y="90" width="976" height="728" as="geometry"/>
                </mxCell>
                <mxCell id="2" value="" style="rounded=0;whiteSpace=wrap;html=1;fillColor=none;" parent="1" vertex="1">
                    <mxGeometry x="374" y="169" width="842" height="603" as="geometry"/>
                </mxCell>
                <mxCell id="3" value="" style="editableCssRules=.*;shape=image;verticalLabelPosition=bottom;labelBackgroundColor=#ffffff;verticalAlign=top;aspect=fixed;imageAspect=0;image=data:image/svg+xml,PHN2ZyB4bWxucz0iaHR0cDovL3d3dy53My5vcmcvMjAwMC9zdmciIHhtbG5zOnY9Imh0dHBzOi8vdmVjdGEuaW8vbmFubyIgd2lkdGg9IjIwIiBoZWlnaHQ9IjIwIiB2aWV3Qm94PSIwIDAgMjAgMjAiPiYjeGE7CTxzdHlsZSB0eXBlPSJ0ZXh0L2NzcyI+JiN4YTsJLnN0MHtmaWxsOiM0Mjg1ZjQ7fSYjeGE7CS5zdDF7ZmlsbDojNjY5ZGY2O30mI3hhOwkuc3Qye2ZpbGw6I2FlY2JmYTt9JiN4YTsJPC9zdHlsZT4mI3hhOwk8cGF0aCBjbGFzcz0ic3QyIiBkPSJNNyA3aDZ2Nkg3eiIvPiYjeGE7CTxwYXRoIGNsYXNzPSJzdDEiIGQ9Ik05IDBoMnY0SDl6TTUgMGgydjRINXptOCAwaDJ2NGgtMnoiLz4mI3hhOwk8cGF0aCBjbGFzcz0ic3QwIiBkPSJNOSAxNmgydjRIOXptLTQgMGgydjRINXptOCAwaDJ2NGgtMnptMy01VjloNHYyem0wIDR2LTJoNHYyem0wLThWNWg0djJ6Ii8+JiN4YTsJPHBhdGggY2xhc3M9InN0MSIgZD0iTTAgMTFWOWg0djJ6bTAgNHYtMmg0djJ6bTAtOFY1aDR2MnoiLz4mI3hhOwk8cGF0aCBjbGFzcz0ic3QyIiBkPSJNMyAzdjE0aDE0VjN6bTEyIDEySDVWNWgxMHoiLz4mI3hhOwk8cGF0aCBjbGFzcz0ic3QxIiBkPSJNMTAgMTBsLTMgM2g2eiIvPiYjeGE7CTxwYXRoIGNsYXNzPSJzdDAiIGQ9Ik0xMyA3bC0zIDMgMyAzeiIvPiYjeGE7PC9zdmc+;" parent="1" vertex="1">
                    <mxGeometry x="390" y="181" width="60" height="60" as="geometry"/>
                </mxCell>
                <mxCell id="7" value="" style="group" parent="1" vertex="1" connectable="0">
                    <mxGeometry x="459" y="389" width="282" height="105" as="geometry"/>
                </mxCell>
                <mxCell id="6" value="" style="rounded=1;whiteSpace=wrap;html=1;fillColor=none;" parent="7" vertex="1">
                    <mxGeometry width="282" height="105" as="geometry"/>
                </mxCell>
                <mxCell id="4" value="nginx" style="fontColor=#0066CC;verticalAlign=top;verticalLabelPosition=bottom;labelPosition=center;align=center;html=1;outlineConnect=0;fillColor=#CCCCCC;strokeColor=#6881B3;gradientColor=none;gradientDirection=north;strokeWidth=2;shape=mxgraph.networks.server;" parent="7" vertex="1">
                    <mxGeometry x="115.79999999999995" y="24.5" width="50.4" height="56" as="geometry"/>
                </mxCell>
                <mxCell id="5" value="" style="sketch=0;aspect=fixed;html=1;points=[];align=center;image;fontSize=12;image=img/lib/mscae/Docker.svg;" parent="7" vertex="1">
                    <mxGeometry x="230" y="2" width="50" height="41" as="geometry"/>
                </mxCell>
                <mxCell id="8" value="" style="group" parent="1" vertex="1" connectable="0">
                    <mxGeometry x="828" y="249" width="282" height="105" as="geometry"/>
                </mxCell>
                <mxCell id="9" value="FRONT" style="rounded=1;whiteSpace=wrap;html=1;fillColor=none;" parent="8" vertex="1">
                    <mxGeometry width="282" height="105" as="geometry"/>
                </mxCell>
                <mxCell id="11" value="" style="sketch=0;aspect=fixed;html=1;points=[];align=center;image;fontSize=12;image=img/lib/mscae/Docker.svg;" parent="8" vertex="1">
                    <mxGeometry x="230" y="2" width="50" height="41" as="geometry"/>
                </mxCell>
                <mxCell id="20" value="" style="shape=image;verticalLabelPosition=bottom;labelBackgroundColor=default;verticalAlign=top;aspect=fixed;imageAspect=0;image=data:image/webp,UklGRuIoAABXRUJQVlA4TNUoAAAvacIxEDUHw7Ztw0j/n52sdZccEBETwKGyuYMbBXUYKIsqy5hyJtWAYyQ7BzDBlMoWKGlH9I0Htnz+jbxvgVAb0Fcvif4HCpxoAjJwl8VOPZDsG1TyzrxyCtD0xQIuWobLpYdTbjl0yW38mCmmCQBWN5LzZ7embcnYZKk9XM1My8xGMcsolmzLbbaMDcNMzVQrS5/e+77Pr+v1SV6c0w4sY/eilndPzKgN07Bv2b52qmuvYablMCdHZmZ0TszMzMzMzMxMnSszZ3m3Kz+A8YUcVBhvW9UzQYU5WXRVrqQw0zK/2xe+dc0pHOoCACpprj35/XcfYGUXB1TgFMKhsTBQcT1j6dzX607Dt207dW3btoXQJUsChG3s1m9j/P9nFsm1tR3bY2T2+/+fv4K4E3dga+oU4JFVAsd2AbaNaxQn95bFSLJrNV1r6VgHXrAIL4N/LWvbdmx7syj9jrfjrlgWoJgnGXUJugbPj9i27SxM9eN9r+e+r+f53zejO6htux1lVNu2zdg2artBjTuc1bZt27Zt27a/2rGd2rYRJ3Ubm7UR89u+uo1t27W/2qYkSZIcW9mW9/8fOCeXmeqZeQ/jaa0fWmu9ZclpMJNY21bQysK+G01i5BEFHlPHSIAkybSt2HOe/d7lPNu2bdv4tm3btm3btm3b9u+RBUmy2zY9z1WSc2AE3gNQ/gwGcNj//+mu8XWuJ5BVjV0+0dTj601dftfU5WoKuZp6XIzm/790zds3dvmYJ5CVNb7NOeR//+8OsjqVNUx5AtncFPKNln7/2drvWre6D2zd7hjQB37gzX6iqcc3Gtq8ubqmU+wttxPDDQHvbA75zQcyq9Y+aQ77m4Y273DbGGZp1TdlcXOvP0DxMdbutWx1TT1+UNeUxWwsB8tpDQHvbwn7/x+HqqXfMYbmsP/3BLLXocU01lW5i+GGjpxrCbsvh43u6VxDdGoOWUMg591uDLOsyj0fbgz4EoYfeRGqoSOXy12MsKqcVgx4Ajn/Twg0hx08TSHDnyfg8yXMB9hUdW098N2Ya+oxer77zBiob8kBFlWNrwsbu/LvzO1cY08g19CVf9W+LWJNldk+5Ono4/9q9xq7AjlPoI/LnBhiS9U2bdejMqjGDqOstqG7WFLlLponkPcfzKQaOoIqT1veux2fZEfV+rrpVRhaQyACqPF1IyvKBEdvfUtvQ/hYwkBDwNqB+gbfMkujNxNS4dkcT1t+fSVEDW3GWDyB+IT6lvys8Gx2JqTOb0erev/snOrGEjZPm6FUHwi81bdFVd1WZULq/Hks0HqLi141vp7MhNT18zg2uPbqW6K9qPX1RnHD/yIDUueP4+XgDUem+qbwJ1TXUqjVNvRxZddqmAGp8/sLdf85+D+xU11ToVHj25eqXlzqDEid3w/850gxVm3TwFTjW2r4cFKmZC9xX21DHUNNXZMJqeP7C3X9fnGqG0tsd5ka3p2UAamuWdU21avRVesrhlRT05Sa0VhQ1VUrfD6Ea3zTzlXXLC47GwuqqmpV0zDfjrFqH9qTqhrChqqsoaob8AXtQnUdaKquGxxUVS0uKxoLqrKKqvbN7zKSqrqBr7JqcZnRWFAVVVSVb67NkKpqhq7KisVpZmNl/S8+q6oaIFZURQUF50OJCVWWLWyoWj+/cRQ7VVaBeVSUEaeRjQVVy+cP9qamygpQEOBUYa/CQ5x6NhZULZ8+eEpkqywbzFS4Foc+Gguqlo9vTCCsogKRrKIMbSZVHCrlZY+DjcaCqunTiUMUC5pUdsdQ7nkcWjb2Vb/MjC1V08cT/YZvkgfMqNxFHGo2FlRNHz6YWm/lnmtf3K7Hro7Ggqrxw4kxIlm56zDkdjxVP78oA1Lj+xObi4ncbkDA7boAyhxPJqSG91+YuCkxHLfjfJXZnqqfXRQDoDesTh2sgYZigUQwhVnjCwJ/S2p4fyLpjSWeY5JgH7AgmFYskAhKeOcFQaYlNbw7sXczuW3Xhs6pwl2ZE+gpc5yvUttT5fNKMQB2SMDEYoFEUMBzCUi3pIa3J56WrDVrrtQJ2CuxI1U+q5QBqe7dF3mRr9QOmCixIpmQ6t5+cSj1lVrBZSaXEUqsgO4kX+1q9E4VWIkZqfJppUzJ1TBWYgaXHu6zoW9aDkxlzZWZ4WpYUoDCFHwgD9rDGFgA62EnHITDpoPIdI3LyLoaLBey062dRppUDVPHasYzWbjScNs8dUWOK7PSC2LPZWaqeFrJOHCHNrAB7sMvbynITdc4jawXxNf+Tj19SU0bNp+KOV+E85r+3QyzjI45txX2x53LiFTxpJJZS/UnIAM2wVdvMchO1zj1rP1xUWKEgG7tZKHMdo3bsN1Vt2DRcD5mfDfplulHwKAHtxlKjIBOiR7gcLGIWSuCzQBgn4ZzsizghxJGSlhwasmphkmemzpU0587zt/sWbO+Db0QiCgYmXMb6ZXRchmJNqeeqeJaySQoh7fep+cCfyjhwKUnBxv2qG4572GDzJ43GzggwCAgICJgZKHMTLsghVXQCP74dB2Sj2CanCw51FRqhsa+2faKLZg3HNjc+c9gTwkQJBJ4RDEFAwtlRnoqnDlZpvJrkDmQBN98us7BRj0VPn7Taw+HluzaUO6FKUN1Wi6g+ctmRFXFIyDkEcUE9Cyt2mOP3wTbAycOlqnsGmQMWMB1n7azs1F74MShD3YtOfRU3XSbX7CVHBXj6yoeAvFOGnV6FkqMAcVZoe/ffdnZSGXXSsZAP5++s2ujwB8tlrOzZFOTywyePuwyf0E4ag7eVnHIkba5mY6FEn34dxw5WGpj1zKVXSqZAip4msaza1kBPljk+Z4qeuxq+gi3F6aM1PSXjqPsCKGIg0B8RkSMTgslenpoDEEOmvs0nl3NemgsXMNWGhxqqGq4zS7EnE/C0ZC5K3pBR3znZvuWaOkamLKrmUovQYZkKeJc6TybOuoaGLCXko2m+/b0YRfvjcN0Uhwyn3zeQaeGEm0ImF0bMGFTRyo9BxkC1h2k82ylUe+P3G5WZShz0+ShOS1HV/5JFweB+E8aBa2aXNrw/gjZ1QEslUpPQYa81mceDoDmontdtNJ3m02E97BpZ5uyOAQENLpScKnpABzZSiOVnioZAn3TejYl6wCELmpTkpWkt/T0zC435WCo+NMJMBDQiAhoS8mlDhfFkE0ZMQWWpvVsNOui6Fjp8L33MGWgTstB0nRDErFJIACcNAJaJTnVYTdK7YaWVRmp5BRkCBxJ61npqN0QsSmDhQxPXemHi3tvHIbVxk8kVTEJGAhwfkWjJGdp2A01a2kIzKLMVHwKMgP04aYOc6dtbkCNVR383UCYRRnMeLCzoT6EXe7IQbTNW9NfM0LiCHju/RZffAPEkAWW8CwMeA8XYftpYC5MMRN4p2ssdNQN4LMqg4UOZjI95OSBOi0H1/SvZh3TCBF4A2/ewqEMe2HGQmcqPgaZAZpViMFHmAc5YEOh68wVw8AIVGAPbuDxmROAC9iB4kIgIsxCRu0Fm0WZfvxhKmpu04ngOdjmLprBruoggSaNOA1NP/vW4HODnpmuGEJhD1+kYDf4xuBKGQqJUgy7App9RRANGffqCbpDtVEtgScUw0BYCcfgDryAT/ADfm77pY3Ah83+F07AehgHzSDqAdFkJrNCcH2gCU02barrOe9hw7dw+TPWV2EScF5Oqwx2ZQohZqGTP6hROErnkr8aDF3UfQLMwRGCIHHHUAK1UC8KWp8CRsLMo7z6wNP/92Qjwnf46wsHu8wBBRTBbLh2Fi8KXsLeySEEdGLJeYvOjCcTXlz20DqA6U8dh8ZhOiIOAqEwWjrY6fQ8ODGTmYoPQTbB61e6SAMziIFOsAROwWP4DP+8wd5lylZhBjzxYeoFzkBXsI0aM571PBCZ0OKupE0nynvYiMrcZT2EwoiJ+5iTW8iEETOeqejQyCYY6yIMdCGtQbhX1FoKdSAVtvXiQ/dkGP33aKn8UjGKucxwquu6ed8Nh452xHrJQCiNlgx2MsHMTBbqPtCHCc9UtA+y6DgQHl2gB3Vw2hdKpc/AWvjvjXQyaAWyNl3BABghCUZdKuuOKKyySyD5jSVcv/IlPIcw66Rr+wuVTQ0ZbGT6QAxgEDwA08g6HRzyXqnB81bhjQUbBlPmy15ULiS5wiq7VDzIUGY83axYnuo6jkNZ5Z8uSgi1pQYPNjzdDBcmNGMT7HFRldeI12ow2OJNBjcgSJWr9CLzAVeEys4V8xnLJE/l5TB/QVA2+ZaQRAyE4vLUNjSY0YAJE5ypcB9kESyIqMFhuvdaQeCavNk2CxGKgEL4Jz5kIkhFqux0YSvmMsnD5lOBsi1eSe8SRAjFERGnQcmKJnqZ8ESTCU0gxXClwl2QRTA+murfv1fr+U/3poNHG9fjU17kant2Rar0XFH0rSVcPqfqbUqcNG/WIGynr2aAbrx3uFLdVOPBgpdivGChCFVsgmHRtCGv1mPP580Hx8FYC8jasAj8voorSiXnQFcGK5DLtBODsLmLZqCrBNgRyvOkKjxZ0FKMFhwUwZUKN0EWwaBIOk8vaoElnPM2GkQJUMJtLwKDXdEqOQV+arAiebEb0+x3gnDG1kU8coRQX6rQZIET9YrhBFGRvFLhplK8AgXc8WpZejEA3yFUhwa9yHnenESRNKsYTT72gaNQnH4IYUfoiTgE1COPKMZODYef34eqRVc382rtfcPeTrdSYe4Ni8ArcHPJ7ANTkTxZlOlbkTVv0Vwp7I3GpgpOZrgUwQW5QlipYBMUqzYOn9QiGMBJb0kvEKYAqOG+l9jwvVwyhfKqM0NVIC71fYeoKzum3aiaSqJAaBFQ+KiXNMvL86FWKFcqWAfFKpjp1Xqit9anFGjF+9BH5y+UVj0fVEXSUgyX7W8ZirZ+a3Rjtr5tVoYj3ugtlXA65aK0jQ+kFkHA7lCvAW8y4k0aCbFr7GSgsO6JuSKXeLZFz1coLnYjWY+EbMDcPzvITXsgWbtMzEycDAIEhL41T6qEi1laro9WoVSpYBUUpy7n1Xrsd4Ryp/8yNEAseIH9YFcAD4iCqsZucBYv6zy2gVb2dTdpzSVXKK66PmRF4pJTmBKK7hCBgNmCZVN/RQ7TFakK9IIgxECgeMQnVcqTSSqF0oJUgVQpf9UoRp0KHuoF7bwMbIUUMHDJykJqDaY2Ittsbhss8iI5LoUCcdUHw2aSFqk4DTXMTt8NtGbNGtdlN6auYj1ttxRDGhF2CnkyiQv85k9WgViJU5DvQ5l5RHj59BQNZNToIgNBc5e63e5eYlgUyS4oyxaBpYkbwoqbAxWLi0waNr4mkNruo8k7YSeJxxBNII74uVoUwuY3KKXJVFxuDltcgzkhwPnGoBD8/n7wRLDqK2lzPtqkN/9X9GVu2TKOS0jmyIHCqj2fTzZlYDUulYr2gfnNVyAskw8NlDZ9IpIDNsAwcRA6iD8BhqX9GYxrqCQCEJZiDEpx+tPC4oJOQbFi5KoxZ79ck3xn1NwtOUmNmQTOoqfjHCcLAgYSTA5ckVWn8RLwA+JdShXtAnszX36+uL30sbRbsNI0XpPD90SfkuleTvx18OuYRjFgW742O301It3EYCwV0lJcLAVisVa+uGMA1Zizz0jPvpALw3/pZH3PJIj1AnCCQjY3f+21NkFltgj0cqlVuG8YJ2QFxcVPvlhA8oulCJdnp9nsWVP2sxvfUEnE8ICLhZGwEJkhZVV8xnb4JBzHTWyKMIExcmkqKpZubJVfrOjBbszZ8F4mO885+6BIAjo7KQieOTVoYtHf5/USP7qWQAX7hm4sZChs9O7hv8+i026IpzrikIsQP7FuMqGhyn+SObOGa/P1vaAjUEYmLRUfflzBobGl8ooVHdgNYZNHDYwU2r/TYI8mzwA6OFxOLc8eELDSS8BT0eKj8vcNp7eQIV/c1bRw2VBv82ciH7C1TcPHIwd4sGWM76PCEXus8Yb4n8bmW0IeBMqIMJRyCB4nenbfqZHWARPASg3YJNPckVSAlhJXceJgvuAZxZ4/yvaqbdpZlVdcAIzFUgiXGS8d1VruuiNvib4q8DHQxcLuAYaRHIgn4gBmfjfrW0qAHYFBSMyApRwq761XK+UVVuCFTiOjaoEiTy8DbZxWK5ODLqnBEGuucDJzq9zK3zX0aiO9UKYeKWoPfav83R20JX6pG7AK8fEIBjoq/4Rt/9EEehgJTwic5TMr3gVXsAu2UV5+Rcfthn0/QzHRgsJyUpGdTum0fgI95b4gmIdqS5ZNwDrRX+Owu5Qpf9vwOxsZ+OV3KDx9vlnzeTesooQIQBcLI3wiNmProvQHmTVrKL1MIJzlk0vZV65o1ziWwKWssstagOtLRXpzOkCpBKyRgzh4k7L5bYF6L3Gfzzg9jPnymdvdsEBt9dpoRmw9y/Cgh1jGulMVc9iOqL/q5i8bLrDNXkhvFYQECKTlN/zXmxoLBT5jvlL28kfqwSGnxVZlv8SESkCqaBlMV2KJoJsI2lQlAiWCiSXgNKkINHZChnzVHyOhB6WmG8BNvSdH3xH9VbO0A3ixUMRM1q7Y+LHhKHmKUVUVJtBGWlwK8mVFoFbQZxQqZS9+pN6t1PimcKWrEuC/YdkLT3PZkYgiwUYvAfOclEGoWoGEIb8VomXmG/Fv3rKp+dcdMhApCoCufjzIrcIb2kp3xLZ5aziqVAO2lMDyzGnY/V1+flsRABN0HTWgtQisdkqMKjog+sm2rxs08hLHAIUuK3Tc1rwHfo+ttE+7kVUV4yOgqx+xkTXlmHYzZoTOa5+GEogj8JbSwlIgFKNQIDPyFf0GUQMGiuQZR+PGOdncNHDRbHbR1zVyOidm4Ks+FA0DKMV4mfXecRz3yPojtoFtVoZBq54/O0Sgav6S+YuG3p0Wj7SaQFzec75QoGUQig8DXylrcZN60EWNR4vsXQsHK7yokz3i4GolbLJsjf41nCGPD5GW25p2gZv2SLL2hEg3l19F/K3m0zSTscOm3BOOrhfrITBHUljyhO3xIWk3QZ0asEz08LN9NaC9eCLvre73hRWBpUbQwkuMDjoh6PldBqEgoue358tsmeSSAd1qF4ny65lKPWT3zdHXcE0ITGtEyO3613phg0nP75S5eEi986jxLonXg4kaQ/cSZr7dTj+3jpwJBxtcldnHFL2nCnV8Lh1/1f2houcvufw2AIU1/quVQgSntky66d8NB8Ps2c8GthIQR6AuJfliFC5MUvZW1dikRH9Zd4dQY3A468PWDlwdfWwoAb8plaj/R8KF8hp9kpHfFMKyNnI+c7WeZAoHa4mK392cRQNl9Ua/PKEhdn4QuEsxctJ8MfKXT4JHD3bKnD+kHfzsXI17SPzTqeGgpzfStncKB9bxiIYPbl+Ol4ChLpRyVje6s9fx5UJJR0FAgAgQLO2rmiOHrOWWcHDUX5GJLRX5Gu8fuDMAOZmw5IFNDzZK5YnSczvqwYfBtADpEqINX4qAwyoMPjdMCjuhS+d2bXxMiS7fHE45yxt5FjOCTcGXdNl1r22a1938hUBaea67g7dExO9WGMhLqVCM4PKvVETT06fUDEYr4r5neLLCj6BgcHsGh13ChfJq6bnNwF3y2GA6Zdt/Elg/RehQgUiiEA/hQQgKQmLEOEj5YuQuOnCBRMddKWP+kHZwDUVfC5DPIJqYp8meN+sNBwf/bQ20Fe3LgyoXUtnLG1NaTMddpoxhwayBtGq+IYcORBIBwFOzIvCXEmEzgBtDBMeW8uAttBgcrkhAR03cpbzp4F+DoLBjXSNKPNrpoQNbQDpu02QuDVvAQan1jhy+K3YGHE4kfNeJFKAv718KFgO3nR0KXW6njNlD2u3QaQZtVKEQQ3rjLX5ACyAVuwx7RI8BYB5a2Ysb5Sx/bDFtblux4wOD0NQHcsRQJCsAWvGRQ7aF55q8Ag9/KeGLMbe1pcttdOmyO2VMH7LofHDIRPeAPqpBE1Xcguey8NIXIs2DGGjpJaC/M+9CJlOnL5NqiXYbPZIj9UWKAt3+h/Mg4dAreK4IxzXfNMnEhOCPBBRD7uL9J8A5GGBo/UJ8clv8kfmxWfA1LRu6bkC2jbC70Mqe37iQzbS5iy67bfVb0GuTZ3LULdG7BDxwNbEhdl+48sN5vV43gb/5zobsdjn6tNmd0qedbK7Jir4cZdyC+zc/pgeFYbkjellw/eBhlTW/0arV1OmLTZ/mzxsabfZMXr6PCpcHXP9YGRvrq+o/xO/ZqZu/NLu8A4G/zAVl2aIt6GBB6Pa4U/NTsUJ+As/4KJJml1OnttYhUH9yVtYuuzXo7tioAMPouqr80y1Y/nD+tGPGE/hLEQqS3KLPXrTZjS5tZifWQS993J6/B28Ny4UMHXxeWA+3mya95RXLjOeOWlu8kNw91l8zPSHAqmNUTU36Re6eA5k5a4ZXFIq5/xyw6TMXTe5CkyZ7JdbBEAtMdI7Jp9+w0QEnQV8H+A5J4ZS5eLBVYZrsBRpl8lZeS1Ta+rWRHbI0zQDe4kHC0UuW/SBzFw0XQOMN+aUQQbCZy5WXenV6NJkrpU076ad5i/GsFpgJDLob++uT5npjQZEO/r9AoZQ5f3ANy2kyF3X6sslEBWybt0Y5YGkMQIfTER1WUa4fHZV7/VUjFgeBoNjM4TZd5qLO3vw6lSh15k5pk05xiSD1J/FrC8w17sWGh8GwCi7Amw2bMCdB6OBvda0wyph3nMp2qvStAJZZbwTcA6mGTKwbHrTiB5eNfdrNmf1wVMyZ/4xvKCQjhu4jtdnH0/uKdw4OiWYtWmA40BkVwqEGhu914rA7/eEHeCrhobdmT69IPsrrA/DFQLSjLt0wvWQAPPw3yg9ylXXSzZ43HEVbvjTBKEGw+ck5uU2XvqkzNxrU6TulTgbFph1K3MMCK6Ho7vn5l4JR74Kb8JvGo+a12Pa/Qyhj1vEe66nTN2XqMe3U+LXjZ/NR65jm8oDX0Fq1ckPXmM7ZrO+Go67+H0mhRogByeZttenboqAHiTaAXcs4q5ccsKI8OCPezaeFhwdgp9h3XNCQv/x8Wzt9kfyTbj1L8atBh3O8orPuyjR/0GgshGSZnbu8gSpzo0yVvhOfYJ7EmKAyz24tDf9fmUmPpIVv6lpipc86bq8gefJh1Zd5c8JdufCUHa+7A/AW3etapuCko/8o8yeJIpl9snObJvNg/hqTgL8QaJ7tbnEi2aY8CFfDj63Z2ykSt+ogWC66DR3FrwK9htYZjcfssWA8tkQxYCsjKDZPmZ3dNKnb71GkSt0pdTwoNuV5ScNHjTv4w7ykS9mwgVzh93mtVOnTjqlUdMFR/BSHIYGC/7MAu9MN8yQ7fDQcHPckgCaGZJmdvWhTNyaO/suc9RY5DvIBou3WFtwHgoQLW/3TX6nZ72mSt7GFSUjB9y160g2jHrHtPggHTf5JR5YjObC9NamHKnWjRJW8U+poUGyCZNmxwkE3jL/qRGw6i0vAQgvO5Ea9mpd1IjCQKX3S0ZySDhybn7wT6xmgG+WAbftBOJjcP8l/hpFMVvZyILMHXqLtGzNDSAijNmWX2RPovto8WJkIotBhlaRnimnPpgvSp0o91KnHmMKyauky6QF7ZA6ySw8tq7VkCCHYFMGQlb1pko8LUqBMPillNCg2gQJeekkwRYxgBd3gkTfnzZDZD+Sl6CTgGgakS8DRpf3fhGnw4BZhLpb2OJsWKW0ysDktKVOHKvk4GB5yDsUrcfBN/yaZOyxyKwRLEXRZmZs6eTB5WaXIspMZw8cTCC+ueN9X894gsG/Ep2zzYYD7SyUvHRKxyYYd5zyuqHXNwm01n2OPMvmAQR4/yrwJ1e9VMdAz3TEYxcIx8GZW+qJOHq8QUOmj/pE5c7DSi4JN+xUA05zDem/UFUYUPHeGkQiaMQXgQv1hhDrBVRPwSLrY60ICpY0HrqgnRexRFwZEM/2rUY/YsqXL6ZSAIbo8FO5OYzDeF+mmESAA3/ealbmoEw9l8tZGkXwAlDbqH2Xx05izU3hZI6dEMNwjXPLeMArtmEZnDFBYzGsdnH926FPZf0+gtHHHUc10n1AoEg9Z/KjrBw6RLV9J7j5LY4an/DpbMf48QzwlZoaMqorCM/bI3L+tYxnwPGNm5qZKPO7Ti5lrxgv7Mpglv/wdqH6h98ZRKAQ3xZVQihQCheXTbRso6cmVYbB0WeH6Uitt1LF3Q2E+3JZv5Hk3dIwAQS/ohAgoPOc5Fj5j9p5ovSUPscVz03RD7p7zKvvRnetBgPO2mekLeNa85lJH/aM0fhpzdoWbeGFbh4pnFwV0oGhY7y0AY7ibWgd7DqGJP0seHRNBNuoCyXerwV4v68mPtW3N9MgTD2n0Ud1NFH6UlbkzQ/7B458x1hOOgbdid+mads/FgRwxZD3g43nGjPRFmTxODBCvshQpxM0XbsMMqIXQJo405dxwxHsrKEWW7LLfY5gfli262B+TfpTicfccT/eyhn12KqWOOtasqi5p7OFupXnzHw6dHb9I9b9OdsDG1JVYhyRiwj18VIBAgGF1bPmqjoNI7lCB4MC2fiNrG6oDfDxvm5G5KBMPhs79NdxS9hGf/nrvjTB00pj+WpJr0AsMadJmZ3cpOon0+3zZvC64JJGHuZzukUPqRC135LdVA3akUExsqhEVNcgzj7SOZda31DMMLZtRVSHZZ4G+Mjsvu3jsHiTAZKRvysTRBVDq4/5RGjuNQYOkbK3nSn65FwQ95EcX/7NoZZhJ0NLUecZzb5SCPP5UF25yI4dKG8AveoTul62YPW9mfjdPOHf+Q+ECwBsdoi2iBDxpMDyuMv5g5hb8mQ6G9uTOnCP0d9H7nOzuTILk1FAMuvSyOliRdbLEQU+XJHIcBU51/wiHra/z3mkWYHn09EMRPx7CjyxxUvKjQTHKwTQVjJ2wNBsWr0gCUuCKl5gXzO2e/33jT/ay4NSpkpLFTz0EfqSx18GExXjSzV9pcM141PEk4GSkbor4i5FreMNKtSTc8tfIq3Na6yoZHGLPUHIr4as5WGr76im+kOtlwUzlZImXPHqMzpVDdcTW7wTLFi5/av91ImaExJGAI5ZDZvKhiB2y+OFDFj8peTgoToEunFBBeMZS8Q6rp/c3Oswa5KnQc37oC+NgeX8deGk/sX5FKLN6YdA4GVns1NVw9Mwjc+U73T8Jfm3/0Vgn3ThfJVGIUbmbXwxDRurxzAycgyZa/RZ+2/yz9PBL63YJx6VHi327clfrHMMVITZH2hLbvjV41XJLjr4t0nXj9/vLUFkqYi9Z7PCSxU5KGk6KVVu8mlJZN7sEu2yCRgqu3Am84Y10d1lXRZNFT/0nlmSx1zuMA2UtCNc1n3dzFw1ODa+og0jgc5csxclM3BTRg3lz+7YtzBVi2TPsLzVcjVhb0u9zkazbXSSBqR8aD5Z4AivH1EX9FcEgv9erab4jfTUI0XmcnFhOGcmHPPaSxo7V0thJSYNJ8epUcMOc+2x3pyZd/EHWvPR0Oq7lT3zFldCiKNLoqdW4+qFxoCQQ073XoQLxLGi7+6YbcuQ++8q2//nZeV+vjwoxQujMGTISD3n0xbi5fnJNHcrlU7O7HKNzfbcPL23JczosuHuhgRbVbrU8erxnAoVQHIRkBQ4TiIbr7o2QtekzMRyxYVVD1pJg2TGnPRD9EfuPEB8i9AipOcObyiOHNHpScDApZrl1GNHLUVpzzv0SThmdVb6+49ixDhSh5Uo4h+7Ay4KroExOGj1w9B7jQEkg0BXhyQRflP7oZnw3KDqH6ax7gT4lc/lbJRBHYpEUavgOCK9rv+YMGfGbPHJSYDApbp3qcwbA7jWIX/W9y4UJelgB867lLIB8Zf40BKkwaeTUhTGmiBzjQOnqIiE+fM8/OvmezF82UDvbY//xE5y0x+/1ayIhSM9pGCCHo8eflFcXxS339x7C6g+KEjYhnx38LheqU2Qblz3Ifp0erhUvDNorIY0cNFz4L8ZxJdLl84Mgkym8hmbEWu/I7HkD6SLhFi+k9Gf3ZMffmUfwvHohBZEcWc70ptjlXnmDUNZ0pqQn5AGPEc2uyXrxiIadrNB5MjQ50tal3wdiC5FE3pJEX1iTRT9jQfnULp+viLfqSSIw0FFH3RbOabfpU0Nza6ev5k7WC3b0bTasok4avnxHAnEEhSSMLP38pfjljrSw3NPfmOqcRWMbXv0HwV2atGFYun2ni4OwP3tZcPPg6u0ii7zGgEVIIZEY3w/BSEcPn6qYDR1zyg/+78l3ZJt3MmvWBLpy8rFPuO17M/WBHDP/uHvwMTWRbpi75rvjEcQIKskYWdbpSzHMuSWFs0k6GCT1HN0p4Y7hdabYdKHpxMZ+1Nf37pw2Dlp6YbB2MSfZPHXfmJNGXrf51BsQfxEBhjjkeqJ33V+Dc7/fwdvip7J32dnL+lf4a1/72mhHDP7ufMQeO1hLjKiacy/buYPno7EI8Vq05ka937yCPfEwS3RR1G0ZX9H87LZOBN8NGAjWNbNfp1CiELDEC7uAfpLIS7Z5jAaLdxMsEuuIxkHge/zxXxPt8H/fCKBwyhWB4WrAftFmCxe+UXO6TH6vyz3kxZwo0Hl8crDLGQn8oOfjOwi3hfAG0KtzU/8zDyOKZgGEPNLqYb0wyLYiN/KCS7L5km6+RoPi3aSv3URh/v83CroARKuRt/BdPlWoTl9euEHGvt/97geDIc0Zafa27jLsvI1kF3ElyZAsv8bN5H9RUGTuqFn/nv8ocG5S+CmYUgKv+mtwAHD7hDNVIhjmSP6lXhn2vvVGWTs/aMHhxM70J4l8xnDLp96gfRTrfaKrE0DUT6C8rX/X7/RV/wPWBYn3graTf28dMG/LW97yaWBubzAgB/J/e3CQXDSLgtzIhx/NLZ/a1S7KfCo4mCg4mByBcjc/0o3Xb33qDRaT9ZZv2T2aK596g8UAFRwMFBwMVlbO5kvYW15+z0gX+6/AYOLQ0Shn8yPZeO35qYsDikpLR4Klc7FZz/U5I7nlU9l/0RlvedVO9l+EPhwBSifOiaVsLKgC/USBfnKEyl1/5W58PreT5RepvLPYrJyNz4GX7bwBey9/n8jfJ0ernPVPzsYfI7jyqWy+qPVnl+1cbNZ5ctc/797ZtRig7PVX+5Cz9spZf717J0svfzfxES1lbXwgOuA8w8CyBMdE8mgsqHx94qgRLHv98/5D+dK5WKes9Q9Uf5e99lmxJBOXr0u8IZJlrf/xdyt2W1+ZL72Xv3vBbjNxUR33MoxbOll3+dpEvjY5qmWvfu5lKFiWsO8iPIaC0olVyzpeVF+G3bLW/vh4rCYF+9cSVpc2A5Kvzeeri/R4iSU3wKZk7E+XvWhGGZCgXUeCdnGUy1r9440wWqYi3FruQyIDErRrXqSRzLW/nHowvyzBpd7IT7kMSNCu5isU8Q+HgAWX6QtjVSYkqMs7aNfPqI8fK/kwifhPsZizMyFBXTpBu47bFtTF1suXi4P6j0tcBasYFx2dvXpcJlRQV9sObadhlLhqrGH0hbEhmBEJMjVBXc+iPzpU8GEy9nfrFsZkMDMqqKt3h8WA0Rf6jiBLKsg0D+q6FQPjLLZHCsKjDYUxGGRLgrpygrr+RH/ky2TLHyYR/O0vx7wgexJkjgoyOfrla5LXj3T6wNgXZFEFTeoHmRviYezWmlTkp4fl5kCQTQmatAgy98bBuHUJq8q2PuyN/MIG+TkcZFeCJs2DzHWxMIpfVbYyEol7x4HCGgqyLUGmXpA5Msj8Gwej+HXl4p692bwk4n/7Qt89Orv7gyxMkJkbZF6J4w9TsN/ZJcjOBJlmQWaPIPNhHHxodiRjf9UHxZaB/BwKsjZBpirIbBFkHgwyv0V9BDnZzOhqu1yYjPE9FfmVfrKvWbcwJoLsTpDpEWQ2BJnTg8z9QeadIPNXkInolq9JjDGQn5VEXAoC2lKw6438Xwr2J6nIL6XiONhP9iXpYk4Psi4OAA==;" parent="8" vertex="1">
                    <mxGeometry x="28" y="40.5" width="74.16" height="24" as="geometry"/>
                </mxCell>
                <mxCell id="12" value="" style="group" parent="1" vertex="1" connectable="0">
                    <mxGeometry x="830" y="523" width="470" height="221" as="geometry"/>
                </mxCell>
                <mxCell id="13" value="BACKEND" style="rounded=1;whiteSpace=wrap;html=1;fillColor=none;" parent="12" vertex="1">
                    <mxGeometry width="282" height="105" as="geometry"/>
                </mxCell>
                <mxCell id="15" value="" style="sketch=0;aspect=fixed;html=1;points=[];align=center;image;fontSize=12;image=img/lib/mscae/Docker.svg;" parent="12" vertex="1">
                    <mxGeometry x="230" y="2" width="50" height="41" as="geometry"/>
                </mxCell>
                <mxCell id="39" value="&lt;b&gt;VitibrasilScrapper&lt;/b&gt;" style="text;html=1;align=center;verticalAlign=middle;resizable=0;points=[];autosize=1;strokeColor=none;fillColor=none;" parent="12" vertex="1">
                    <mxGeometry x="349" y="28" width="121" height="26" as="geometry"/>
                </mxCell>
                <mxCell id="49" value="" style="shape=image;verticalLabelPosition=bottom;labelBackgroundColor=default;verticalAlign=top;aspect=fixed;imageAspect=0;image=data:image/png,iVBORw0KGgoAAAANSUhEUgAABAAAAAFxCAYAAADtW9pAAAAACXBIWXMAAAjbAAAI2wHNrPlDAAAAGXRFWHRTb2Z0d2FyZQB3d3cuaW5rc2NhcGUub3Jnm+48GgAAIABJREFUeJzs3XmclXXd//HX5zoDM4ALCuK+565o7u1ZeVe26F1StmgoOjCDmhTLYMs0dylzRgwLmTOSGlaaSZp2q6n93DK91VxySU1Nc09AwQWYgXOuz++PGU0MheH6nrnOOdf7+XgQEsPn+2Y4MOf6fDdzd0RERERERESktkVpBxARERERERGR8lMDQERERERERCQD1AAQERERERERyQA1AEREREREREQyQA0AERERERERkQxQA0BEREREREQkA9QAEBEREREREckANQBEREREREREMkANABEREREREZEMUANAREREREREJAPUABARERERERHJADUARERERERERDJADQARERERERGRDFADQERERERERCQD1AAQERERERERyQA1AEREREREREQyQA0AERERERERkQxQA0BEREREREQkA9QAEBEREREREckANQBEREREREREMkANABEREREREZEMUANAREREREREJAPUABARERERERHJADUARERERERERDJADQARERERERGRDFADQERERERERCQD1AAQERERERERyQA1AEREREREREQyQA0AERERERERkQxQA0BEREREREQkA9QAEBEREREREckANQBEREREREREMkANABEREREREZEMUANAREREREREJAPUABARERERERHJADUARERERERERDJADQARERERERGRDFADQERERERERCQD1AAQERERERERyQA1AEREREREREQyQA0AERERERERkQxQA0BEREREREQkA9QAEBEREREREckANQBEREREREREMkANABEREREREZEMUANAREREREREJAPUABARERERERHJADUARERERERERDJADQARERERERGRDFADQERERERERCQD1AAQERERERERyQA1AEREREREREQyQA0AERERERERkQxQA0BEREREREQkA9QAEBEREREREckANQBEREREREREMkANABEREREREZEMUANAREREREREJAPUABARERERERHJADUARERERERERDJADQARERERERGRDFADQERERERERCQD1AAQERERERERyQA1AEREREREREQyQA0AERERERERkQxQA0BEREREREQkA9QAEBEREREREckANQBEREREREREMkANABEREREREZEMUANAREREREREJAPUABARERERERHJADUARERERERERDJADQARERERERGRDFADQERERERERCQD1AAQERERERERyQA1AEREREREREQyQA0AERERERERkQxQA0BEREREREQkA9QAEBEREREREckANQBEREREREREMkANABEREREREZEMUANAREREREREJAPUABARERERERHJADUARERERERERDJADQARERERERGRDFADQERERERERCQD1AAQERERERERyQA1AEREREREREQyQA0AERERERERkQxQA0BEREREREQkA9QAEBEREREREckANQBEREREREREMkANABEREREREZEMUANAREREREREJAPUABARERERERHJADUARERERERERDJADQARERERERGRDFADQERERERERCQD1AAQERERERERyQA1AEREREREREQyQA0AERERERERkQxQA0BEREREREQkA9QAEBEREREREckANQBEREREREREMkANABEREREREZEMUANAREREREREJAPUABARERERERHJADUARERERERERDJADQARERERERGRDFADQERERERERCQD1AAQERERERERyYC6tAOIhGRzztyW3Mod8WhbjG1w3xZjY9xH4ozAbOO+D60Hhvb99xLAMVbg/jLYS+AvY7xIbE8R8U/cnob4797Usjid35mIiIiIiEgy5u5pZxBZJ3bOGTvhfjDuBwB7AXsCG5Z3VH8GeBDjPtzuII5v94nTXyrvmCIiIiIiIsmpASBVw87t2IoVfBKLPwn2fmBU2pnAHXgU5yai3LW8bjf65MlL004lIiIiIiLydmoASEWzOfk9yNmRuB8B7JF2njXzHrBbwC8j13O5N7YuSjuRiIiIiIgIqAEgFcjmnrU5pe6xwFFgu6WdJ4Ei5jeC/ZKG7st9bGt32oFERERERCS71ACQimBgFPKfwjke49PU2gGVxss4F4LN9aapf087joiIiIiIZI8aAJIqmz27nrplY4DJwO5p5yk/d4huAD+bpmlXO+gvoIiIiIiIDAg1ACQVNrdtKKXBEyD6NrBJ2nlScjfwP9407Q9pBxERERERkdqnBoAMKGtrG8yohvHgU8A2SztPZfDbMX7gE1puSDuJiIiISAh2fsf6rIhHEOeGE5WGU7INiWw47sPf/B42BFuv9xf4YJxhvf/Nv/8bwG0F5m/csrQcrBt8OcZLOItwFhL5Ijy3CC+9QN3GT3lj48oB/i2LVAU1AGTA2JzTP04U/bjKD/YrI7ueqPRtHz/9obSTZI0V8t998w2IvDuP7/Pmll+nHUNE5O3s3NM3ZWXdpERFcsWfeOOpLwSKVLPs7I4tqIt3JWYbYDuM7cC2xtgEZyQwAhicYsQi8BTwOOb/wKPHsPivDI7u9uOmvpZirrKzrvb/xqODEhXxuNubW34QJpFUmto6aE0qks2ZsTNR9FOi3MfSzlLZ/OPE0Z1WaD+bpXU/9MmTl67510gQzomYb5p2jKpgdjGgBoCIVJ4VuVMwn5aoRqkuAqaGCVT9bP78HIue2gOKB2O2P84ewO7kGI4b2Nt+QeXMK9YBOwI74gY4uEGPx1bIPwzcifEXYrvJm6c+nG7UwGL7JObjE9UwWwL8IEgeqThqAEjZWFtbHaPqJxFF3wMa0s5TJQaDfYthxS9aZ/tEb265Lu1AIiKydmxeWwNLh+4O4BOn3JN2niyx2W0bUNfQlLySj7ezzjrdTzllSfJa1c268k04HcB6YJX0cJ9EBOwB7IFzLOZYIf8kcDVwFd2Db/JJk5anG1GkvNQAkLKwc/J7M6rh58CeaWepTrYtxpXW2X4hdXaKN057Je1EIiLSy9ra6ths8M7EtgfOXpjtDoyGhh2I4hxYFxDgYVTWWl19E7BhgEobUN/TDJweoFZ1c7YAsrA9bntgIjCRhhXLrJC/HPPzmNByo25rklqkBoAEZWAU8ieCnw5Wn3aeqmf2NUr+YZuTP9YnTvtT2nFERLKk92ta+/a47YHZnhh74b47oxp2I+7b3/z2JdAy4GxeWwM0fDNYQedkm9f2Yx/b2h2splSLocBXcfsqhfwT5nY+MT/3E6c+n3YwkVDUAJBg7Cenb8rg3C+AQ/SOKCTbmsivtUJ+Bgu6f+StrXHaiUREapV1nrY1VtcKjAZ2A1uv90ua5gIr1vL6Y4DNg9UzNqW74VigEKymVKMdMP8ROb5nXe3nEZfavfk7z6QdSiSpKO0AUhus0L4fg3O3AoeknaU2WQ74Lps2XGNdbaPSTiMiUrNs0JbAOOAAsrH8uarZ/Pk5sMnBCzuTe2uLUI9bM1b3mBXyZ9vsjq3SDiSShBoAkph15k8AuxnYJu0sNc/5KF5/qxVmjk47ioiISOoW/uNIYKcyVN6Bl54YU4a6Ur3qgYnU+aNWaJ+mBpFUKzUAZJ0ZmHV1fA9jDune9Zoxti2UbrJC/jNpJxEREUmV2ZSy1XZaVnPRncgQsHYWPXGXndOxf9phRPpLDQBZJzZr1hAK7b/B/XtpZ8mo9YD5vasvREREssfO6TgU2K+MQ+xNV/6/ylhfqts+xP5/1tXxPTWKpJqoASD9ZjNnDqNhxe/Ajkg7S8bVYcyxQv60tIOIiIgMuNhbyj6GM63sY0g1q8P9f+jsuNIK7RulHUZkbagBIP1iZ7UNZ1jxD8DH0s4ib5qiJoCIiGSJdbYfwMC8FznE5sw4aADGkWpmfhjYHdZ1+p5pRxFZEzUAZK1ZoX0j6uuvAzs47SzyH6ZYIX9G2iFEREQGhNnAzcxbpFUAsjZ2wnN/7mtOiVQsNQBkrdjMmcPALgPbJ+0s8o6+aV3tP0g7hIiISDlZoWMX4L8HbkCOsHNm7D5g40k12xCz63Q4oFSyurQDSOWzWbOGMKz0e+ADaWeRNXA71QrtS72pRasBRESkNrlPwgZ0Esvw6BSgcQDHrEWvgL0K/hrwau83e+XfP+3LwbpX/SW+DKwHPAe2AcRDIGoA3wAYBGwIbARs3ffjSjCc2K+xwsyPedPk+9MOI/J2agDIu7K2tohR9ReAfSjtLLLWfmRdHf/yCVN/mXaQjLkbfH7aIcovejjtBCKSXTZnxgii6OgBH9j5us2e8R0/afrCAR+72hXjUeX+vNn8+TkWProFNng7zLfDfXuM7YH9cHYHcuUcfzVGQPH3dt6sfX3cpJcHeGyRd6UGgLy7TYZ0gOu0/6pihsddNuf0533iqdennSYzjAd8Qks+7RgiIjUtisYDQ1MYeQh10XjgRymMXd3qRywp9xA+ZkwJeKbv2y1v/TnrbFuPqH5/PDoM/HBg53Ln6Rt5W1b0/NzgCAcfmDFF1kxnAMg7skL7BMxPTjuHrAsbRJT7tZ1zxk5pJxEREQnB5rcNBiamGKHZZs+uT3F8WQfe3Pq6T2i5yZumTvWmabtgpb1wP5vebQhlZp+nq/1b5R9HZO2pASCrZYWOg8Fmpp1DEhlOHP/OZrdtkHYQERGRxBY1fAnYIsUEm1O3/KgUx5cAfMKpD3pzy0l495Y4U4DF5R3QZtjcGbuWdQyRflADQP6DdZ6xGR5fDAxOO4sktjN19ecbWNpBREREEjol7QDgFZBBQvDm1te9edpM8B2BHwPFMg01iFLUUabaIv2mBoCswtraIiz+JWZpdtglKPs8ne1pLpkUERFJxObkPwzsl7DMcwGi7GOdHYcEqCMVwptaFnvTtG9jfiDGPWUa5nM2p+PjZaot0i9qAMiqRtVPAT6SdgwJzJhhhZmj044hIiKyTiImJaxQJOIzwOuJs5gnzSIVyCe03MuL3Qdh3lmWASI/UysypRKoASBvskL7fsD3084h5WD1ULrA5rU1pJ1ERESkP2zuGTsCn0tUxLnMx0+7D7ggQKTP6JDd2uStrUWf0DIR5xQgDlx+bwrtWgUgqdM1gAKAtbUNZlTDecCgtLOUw7BBg9h1+Iiq67q+sOw1nl+6NNTVMXvQXf9d4LuB6omIiJRfsXQyZsnucff4xwBE0U+I4yaSTYJFxPE3gRMTZZKK5c3TfmKdHSsxnxO2ctQI/L+wNUX6Rw0A6bXpkOm47552jHL55l77Rz844IPJ3jwMsIseeyg+6c9/LAUt6vYt62q/1Ce03Bu0roiISBnY3PyGmB2bsMqtPnH6HQA+fspjVshfC3w6YbSxVmj/nje1lPcEeUmNN0/ttEJ+RyDgNX5+uJ17+qZ+/Kkvhqsp0j/aAiDYnPweuE9JO0e51OdyTNjjvVXzWl/S080x119ZGnvDVaXXVqwIXb4Op2BtbWr+iYhI5SsxDlg/UQ3nx6v+2H+aqF6vYbidEKCOVLIF3dOAuwNWHMzK6JiA9UT6rWoeiqSMcvyEGr7y7yvv2S3abOiwqlj+f8NzT/k+888vXvz4w6H3nb2F7cumDXrTIiIiFc3mz8+RfJn9k2yy/RWr/D/NLdcCDyesC8bJNnduTW6dlF7e2lrE7WigO1xVOyxcLZH+UwMg4+ycjiNxPpx2jnI6aa/9K/513l0s8t07/1Q67Kr5xYB7/t+Z8wOb2zay7OOIiIisq4VP/jewfcIqs3zMmFW20zk4xuyEdQG2JF78xQB1pIJ589SHMQoBS77fZs4cFrCeSL9U/IORlI/NmjWEOJ6Rdo5y+tQ2O9heIzap6Nn/hxYv8g9e/qtix713xLGX/9m/z0YU6783UIOJiIj0m3FKwgqL8e6fr/Znou4LgJcT1ofYTk5cQypfHHUAywJVG8zQ4ocC1RLpN+0DzrKG7iaItk07RjmdMnr/ij34z93p/Nu98bTbbyqtKIU962+tGI12zhln+/gpjw384CL9Z3PbhlIcsi3OFlg8ksiG4z4coo3A1wPrXYprPhinDmwZHndj0XI87gZbTORPE/Ms5J7x5in/Svm3VDVsbn5D3Hai5JtjvjkWbY4zBPfhmBn4ULBueq/NegXiIm4vYv485s+DPceInud9TGvwg02kNllX+3vBPpCwylxvbn19dT/jja3LrJA/H5icbAh/nxXa9/OmlpD7xKXCePOUf1ln+/mYBbr5IfoEcE2YWiL9owZARtnMmcMYFgU81bTy7DVipB2yxTYVOfv/7NLX/Lgbry7d9NzTAzbl/58sRxxPB45LL4PIqgyMzvYdIRqN+a6Y7Yn7bsC20LAR5mB9H+l93/PGXyNf5TtwMHvL94Bb36+PsUJ+OXAvxl9w7gS/3ZtanhiQ32gFs8629aD+g2AfwdgXY3ecrXo/j9D7ue/7JBv8x+f/jZ9482P7PveLGmIr5P+F21MYT2P8DeIHiXL388KyJ721tYxnn0jVie1Ekn0FX0mRs9/1I8zn4DYJSDZZ0PtQmPCmAql4kV+MB2oAmO8dpI7IOlADIKuGFU8GG5V2jHL69t4HRWaV9/x/2ZOPxk03X1ta3BPwPJl15l+xuTM6vHH6I2knkez598M++2HRfuD7AftiNvzfD/Nl7ZENAd6P8/43Elmh40E8vpQo/q1POPXBcg5eSezsji2o40jcx2ANB/PW9wfh/ggiYAvMtwDe92YDpxTDqIbXrbPjAfD7gbupi2+p7n+X4q2s0P6JtFO8qdhzp5/U+mraMdaWzT1zJMZXEpb5jZ809dl3+wCf0PJPK+SvAL6QaCTnKJt75hRv/PaiRHWksr244v8Y1fACsHmAajsHqCGyTtQAyCCb2zYUGmp6z9oWw4bZkTvsUlFnXLyyoptT/nx96cLHHqqgWS7LUWQamrmQAWLnnr4pK6PPgX0K+BhmG/X+TIqLYVbhe/auOsi1WiF/H3gnS+su9MmTl6adLDQDo+uMz0B8CjkOwVM9F2g9zN8HvA+AUkTvagG/nsh+z8rua6rpARbss8Bn007xplz9gcBf0o6x1uLi8fQ26BLUiGat3QdGP4U4WQMAGvoytyesIxXMW1tjK+SvIcx7pq1s1qwhPmnS8gC1RPqloh6QZIAU68cCI9KOUU4n7bV/NDhXOdv/b3ruad/nkp8XK+vhv4/xJev88dZpx5DaZvPn56yQ/z0rc8+C/Qz4IrBR2rnWYG+wcxhWetYKHR1WaK/0vGvF2toi6+o4mkL+b3j8vzgfpzLfD2yG2ddwfkNdw0LrzF9nZ89MeiK8VDhra6vDaUpY5kafOOWetflAb5pyM/DXhOOB09R3baHUNLs/UKGIhtJOgWqJ9EslfsGXMur74nRS2jnKaf3Bgxm36+iKeG33lHqv9/vUVZcUn1v6eqVMcb6NDSJaGehQG5HV67uGa9Wl5dVjOPgUsMeskJ9obW3V+HsAwDrz72dUw+24/wLYLe08/TAY41B85WoPdJMasmn94cA2yYrYWf36cLd3Pytg7WzDS//4fIA6UtHicFvDvFTTB3FL5aqIhyQZQC8/cRhmO6Ydo5yO23V0NLy+Ie0YPLz4Jf/QwF/vt26ccbqTVgZAtd84MQI4m1ENd9mcGVW1f9Nmz663rvxZGH8GDkg7zzp6wk+avjDtEFJmnnSSwp5h5PZX9euXLIsuBpJvMQl1QJxUrmIU7mwSY/1gtUT6QQ2ArIn9+LQjlFPOjIl77pvq69rdOe+R++P3XfbL4l8XLazwJ/83bcCw+Mi0Q0jNezztAIHsTRTdZV35L6UdZG3YnBk7U7fsdpxvQsJz1dN1Z9oBpLysMHM02EeSFeFnfSuO1lrvGR92UaJxex1ic/J7BKgjlaonWhyslhoAkhI1ADLEzu3YCvivtHOU0xd22Dnabv0NU3uD++LypX7ENZcVm26+trSsuDKtGOsoHpd2AqlxZrXSAABYH+c3Vsh/N+0g78YKZ3yEKPo/YJ+0syRnd6SdQMrMSkln0FcSFc9dp18Z288Sjg1gREwMUEcq1eTJy4B+NZjema8Xpo5I/6gBkCUr4mPBavqAmm+O3j+11/Tvnnw03ueSnxf/8PQT1TLr/zZ2sJ0zY/e0U0gt82rfArA6P7TOju+kHWJ1elcoxNcCG6edJQh3rQCoYXberI1xvpasCFd446kvrMsv7Ts08O5E4/c62ubmNwxQRyqQ915Z81qYapEaAJIKNQCyxKiK5arr6kObb20HjtpiwGf/X13Rw8Q/XVf68nVXlF7qrvLbXOLoy2lHkBpWWysA/s38R9bZPintGG9l58w4DOdXQH3aWQJZSc/ge9MOIWW0omccMDRRDfdzEv16I8QqgPUoMjZAHalcYd5rxnFNT8pJ5VIDICPsnPzeYLuknaOcJu19wIC/nu948Xk/6NILij97+L7Ku95v3agBIOVjNbkCoJfZGVbIfzrtGAA2Z8ZBxNF8YFDaWYIxHtB92bWr94Yia05Y5lGaWq5PVGFl96+BpQlzgNFs1X3ehry7MDP3FmolgUj/qAGQFTE1fcDbThsOt8O22WHAXs/FOOZHd99W+ugVFxX/8eorVbrkf7V2sK7296YdQmqTN057BajVU9xzwEVW6Ei10WpnnTWcyH5D0pnUSuNo/38tW/Tk54DtEtUwn9u3PHud+UmtrwIXJ8rRa2c62z8ZoI5UGJs1awi9/94HKGa61lRSoQZAZnhN3017yt4HRpENTLP970te8g9e/svi/9x1a1yq9Ov91kn02bQTSE2r3VUAMBz8F9bWlt7X1vqeAljt3S2t/f+1zT3p7H83JZ8XIgpxHGIbABhNQepIZakvhjvfwbUCQNJRl3YAKb/e0/9tt7RzlMvGDUP46nt2K/sbbnfn/L8/EE++7YbS0pXVdsJ/P7h/Cvhh2jGkZj0OvD9QreXAYqD7LT/upnf2ux7YEBhOqNmatXMgoxqagDkDOCYAdk7HocBRAzDUK8DfgL9jvAr++qpvZKONAHDfBPOReLQJ5psD27CuEw85NQBqlc2ZsTNR9ImEZS7xidNfCpHHJ06/wwrt94ONTlbJPmOzO7byk6Y+GyKXVIiouCMe6i2nVgBIOtQAyIIV/ula3ok2cc/3RsMGDS7rGAuWL/MJf7q2dOU/H6/FKf+328+62kb5hNYFaQeRmrS2KwCKwD+AB4GHcZ4mFz+H+9PUsZDl6y/xk07qWVMRm982mAWDt6OO9xBH7wM+ChxEeffHn2bnnv5bP/7UF8s4xiqsrS1iVEO+TOWXAtfi/r9Qut6bv/PMuhSx2bPrqevZBY93xvx9wAeA/Vjze5FX+deKR9ZlTKkCUTSepPvlo7grTJg+Fv0M99kJq+TIxccDPwiQSCpFnNsVC/RWMPaXwxQS6R81ALLA/NBaPYumPpejcfd9yjr7//t/Ph5PuPna0qLuZeUcppJE0PAxwuyDFFmV8fhqdunGwCPgfwH7C2Z/YeWQ+9bmAX9NfEzrCuDRvm9XA1jnGZuBj8MYD7510jFWY0NW1k0CWspQe/U2rf9vnNDnd/wDfCbd9ReEOICv78/z/r5vvwWwmTOHsZ4fgseHAZ9mdfvAjb94a2u1HbS6EHg67RBvynnyg+3KwGbNGkJD4hPz7/Px0/8vRJ43eXwhWAcwJFGdyMbZ/Pk/9DFjAt0bL6kzwp3zYtGjwWqJ9IMaANlwcNoByuXonfeINh0yrCzdjWXFlXz/zltKP33g7mp745mc837UAJByMHuc3rMzFmBcgfM7it239h2+NSC8ecq/gNNsftsZvNQwDue7wBaBR5lgs9tOH7DfV2zjw/V57RmM6YzY/uJyP7j45MlLgSv7vmGdHbsRxYeBfRVn394Pqsbl/3apN03VHvA1aVh5FLBxsiIedvYf8KaWxVbIzweOSVaIrVj05GeA3wcJJhXAPxyo0Ct9X4tEBpwaADXOOtvfg9lmaecoBwNOHr1/WWb//7LgBR97w5Wlx15ZkoUl///J+UDaEaRG2fKHYOiHGbndbWnPivWtDihYof1i4CdgRwcsvyGD6k8AzgxYc7Ws0L4DZh8PVG0+9Yzz46amcjiVN099GHgYONMKM0dD6dtgt6aRRQaCT0hY4DXqowuDRHk752dYwgZAb6FG1ACoCTZ7xibURQcEKvf3QHVE+k0NgFoXRe+jJk+qh8O23dF2HT4i6Ox/MY456/674ta/3FJaGWdv4v9Nxh42N79h37VtIsF4Y+sy4Ja0c7yVN7UsBo6xQv4vwFmEuiHH7WsMQAMAt89hQTL/nKap45JepRaKN02+H/hG2jmkPKzQvh/YgQmrXFiuZpU3T/uzFfIPA0kPUf6UzTlzW5/47adC5JIU5aJPE+wGNVcDQFKjawBrnu+XdoJyOWX0/kFP9n7qtVf80Ct/Uzz1jpuz/fDfK6IU75N2CJGB5E3TZuMcS7gH4Pfa3DN2DFTrnZknPUEdjHsY2T2hUh7+JQss+RaJiPMCBHln5iHq54iKxweoI2kzawxXLLonXC2R/lEDoNY5e6UdoRz23WSUfWSLbYLN/l/02EPxe+fPK976wrN68/sGt5p87Yi8G2+e9gvgtGAFS6Ujg9VaDWtri8CS70n16Ft9WyJEys7OOms48JWEVR708VPvChLoHdX9Egjx9+I4a2vTqtsqZoWOg8HDbY90rg1WS6Sf1ACofXumHaAcJu19UJDX7qLu5X7ktb8rjb3hqtLrK/Xed1VWk68dkTUaucMPgu07Nzs0SJ13MnK9rYENkhWxB71pys1B8oisjcE93wCGJqph8bwgWd6FT5i8APjfAKW2YNP6zwWoI2lxvhew2tN9552IpEINgBpm53dsAWyUdo7Qthy2nn1h+50Sv3b/+MyTvv9v5xV//8/HM7/ef7WMPdKOIJIGHzOmRGTHEmLmzznY5s4dlDzVO6gr7Rygyh8C1BBZK9Z7hm/Sw/+K1MW/CpFnLYTZZuB416/yAAAgAElEQVQ2PkgdGXDWlT8K88PCFdTsv6RLy5FqWbfvEO5aqMrxzdEHRIOidd/+v7y4ku/deUtp9gN3x1rv/662TztAVXE+Z4V8mZejDqAcX/DGaZVzj/kA8/FTHrNC/jwg6T7lYcRL3guU5yo79x0S1zAeCJBEZO10tR+C2a4Jq/zBjz/1xSB51mTkDtex6MlnwLdOWOlQO3vm9n7i5CeD5JIBYeeevime+2nYqq6mq6RKDYBaZmyXdoTQ1h88mGN33XOdZ//vXvgvH3vDlaW/L1msZ/81G2Wdbet5c+vraQepEiP6vtWGlXFD2hFSF9fliYrjSb5a7kDK1wDYgKSdXiu9FCaMyNoIcPif27zkOdZyqDFjStbZPg+zpEvAI3LFE4BTQ+SS8rO5bUMpNVwBbBKw7EusHHZ1wHoi/aYtALVtu7QDhHbCbntHGw7u/3NJyWNm/vXO+CNXXFTUw38/5AZvk3YEkbT0Xdv1x+SV4qTXiL0LWy9xiTinyQAZEHZ2xxY4hycss4hNll8ZJNDaiut+DgTYLmjHlnVLkARjbW11FBt+BRwUuPQv/aSTegLXFOkXfdGvZeab47WzB6Auijhxr/3WqWnVUypx5I672JE77jKgr/mSx3Tce0f880ceqM5zBkq2FfBQ2jFEUuM2H/NPJqxRzgbAkOQ398WbBYkisiY5Px5I9gDsftFA31jhJ05+0gr5G4CkV25uRnHJ4cBvA8SSMrHzO9ZnVMNvgE8HLl2kFHo7gUj/qQFQyzzokqXUjdlhl2irYeuvU0djaN0gtlt/wwHthjzz+qt+/E3Xlv70/DPVvOKgdpa0i6yLOv8jpcRVku53fhe+PHkNUwNAys7a2iJGNYxLXMhzFwSI03/GeXjiBgDgjagBULGs0L4D2KXAPmUof4nOgJBKoC0ANc1q6uHtpHWc/U/DZU8+Gu//2wuKVf7wD2oASMZ547SnMZ5NWGbTsi37dZYGqPLeADVE3t2mDYcCCbeV+f0+cco9QfL0V0P35cDLiesYH7ezZ+qQ3QpjbW2RdXWcDHY/5Xn4X475d8pQV6TfquaBStbJxmkHCOWjW25j+4/avOL3Myzp6eYb119ZOuq6K0qLe7rTjpOcWc28hkTWmfO3hBUiViwpz4qsiFcCVPmYzW1Ldie7yJq4BZj9Z17yIOs49NjWbtxDXD0YkSsdH6COBGBg1pn/HKMabsf9J8Cwsgzk3uETWv5Zltoi/aQGQC1zr5k3dKeMPqDiX6s3PPeU7zP//OKvH3+4Ovf7r1btvIZEEkjaAIC6eNMAOf6T2RMBqmxAPOS4AHVEVsvmnjkSPOnhfyuJ6i4MEmhdWd15gSqNtbY2bcNNkZ3fsb4VOo6lkL8H4/fAAeUbzZ+irqejfPVF+qfiH6okAWNw2hFC2GX4Rvaprbev2Ndqd7HId+/8U+mwq+YXn1+6tNqX/K/KrCZeQyKJmCdvAMRlOpPF48fC1PHTrat9uyC1RN6uVPo6JHxPYlztEyYvCBNo3XjT5Ptx7gpQagtGNnwmQB3pB+tsW8/m5A+3Qvs8evwF8PMpz3L/t3Iib/bG1mVlHkdkran7WNOsJq6ambT3gVFklbn6/+HFL/kx1/9v6b6XFtbWg/+bvD7tBCKpK0VPESX8K+42JEyYt3mx52lGNSwBhiestD7OPJs791BvbFwZIprIWwRY/m/zkscIwPw8sP0T14k4AbgieSB5JzZnxgjMDiCKDsD9o1jDB3snxwb0PeVpPn761QM5oMiaqAFQ26q+ATBqyDC+8p7dKm72393p/Nu9ccvtN5V6SsmPCK9YXhurSEQSsfjVxG8YzRvChFmVt7bGVsjfBByRvJp9hNLii23u3KPUBJBQbM6Mg4iiPROWWUhu+FVBAiWVs19T4kwg6Ra5T1nnaVt783eeCREra+z8jvVZyoZENooo3hRnE4xtgO0wtsPZgSjqPWzR05qjsWtYsLw1pcFF3pEaALWt6t/ANe+xTzSkrrL6GM8tfc2Pu/EPpRufe6pGZ/3fwhjQu5ZFKpL7KyRehWTlW03j9kfMAzQAAPgCpcUX26xZX/dJkwJcMSiZl4vGkfyr5cWV0pTyxmmvWCF/GfD1hKVyRIOOA9oCxKps8eLbrZBf11fBRn3fD6e3E7sBkAP6nmL6yr71n+jKeHf2GIMHfc1bp9bQuVBSK9QAqGm+coCXOQXVkKvj+N33qajZ/8uefDRu/tN1pZe7s/K+2HrSTiCSOqt7FRK+hzMv32qaUmk+ddGZQKhVBl+gYcUDdk5Hk4+f+sdANSWDbObMYQzjqMSF3H8ZIE5AfgFY0gYAOONs/vwf+ZgxNbyUEHD2TTvCgHIeIbaP+7hJya+NFCmDinq4ksC8umdvv7HLntGoIUMrooPx6ooejrvx6tJR112RoYd/wL2qX0MiQZSWJT+8yct3kImfNH0h+PzAZXck9uuskL9Qd5bLOhsWfwlYP1EN5xFvbvlLmECBLOi5AXg6eSHfmpcf/2TyOlI57EEGlz7qJ059Pu0kIu9EDYBaZla1J44acOJe+1bE6/P2F5/zAy+9oPirR/+WwWVc1fsaEskUizuAcswifpVc6e9WyJ+rRoCsg+SH/2G/Sl4jLG9tjbFAqxLi6IQgdaQS3EEud4gff+qLaQcReTfaAlDbFqUdYF19drv32C7DR6Q6+78yLpG/947SaXffFpdSO0AmdS+lHaBqGPN8wrRj046RNQbG7BkjyeVGgo/AbCQeD8H6Zh3dhmC+vO+DXyK2FzF/niE9z/vY1u40s4fkE0590Aod54E3lqH8IGAcudIx1tl+CRad7U1Tby/DOFJDbO6MXSH6QMIyThRfGCRQaJa7AI9PJfley8/a2R1baMa4qjnwE0Z2T/MxrVo5KRVPDYBa5rxcrUcATBq9fy7N8R9Z8pJ/4/orS/cuWpDZJ38A3Ku2iSS1xebOHUT88p7E0b6Y7wn+HrAdge2pixr+feqTs8qBffbm//R+yBs/Xt6AFfIvgz+LRX/D4/vA7sf8YSa0POWVcoxUfxRL3yUXHY6xaZlGGITZ18C/ZoX83WBz6B50sQ4LlNUq5Y5L/NfIuMUntPwzSJ7AfPyUx6zQcRt40iZHHTkfC5weIJYMvCVgx3rT1MvTDiKyttQAqGWRL8KrrwOw/6jN7IObb51KcHdnzt/uiU+9/U+l7lIxjQiVZnHaASSbbNasIQxd+UFiPg5+CLAP2GDsjQeKIP9EbAy2Me6jwb4CgBsU8q8bPIzzABF3Ujf0ocSHAA4AP2n6Qus643g8/j3lPwF2P/DzaVgxy7ryl0B8gU+YfmuZx5QqYXPnDsL9mMSvwpiKW/6/qngeWNIGAMDx1tbW7q2tlf8Pjfybcwl1TPHGqQHOgxAZOGoA1DK3F9KOsC6+tfeBqez9X7B8mTfefE3p6qf+UX0zf2UT6X5iGTA2a9YQ6ns+j/FVGuy/iIOdat9f6wEHYByAc1w1PPy/wSdMudIKHR3g0wZoyA1xToDoBCvkHwUuoGTztJw54+KXP4tZ0pUo3ayoD324ZVjFnkuoa/gJMDRhpe3ZbMjHAd26UR3uhmiSN0+5Je0gIuuiIg5ZkzIxezLtCP21zfrr2xHb7TTgr8vL//lYvPcl5xf18P82yyJ1taXsrLNjN+vKz6VhxYuYXQz2ecJdaZc9TVOng/0mhZF3Bk4j509ZIf87K+Q/bW1tep+RRW7JD/8zrvRTTlkSIE3Z+Emtr+L+uyDFYnQYYMXz+zE7hgXdB3qTHv6lemkFQC2L/alqOwPgm3sdENVFA/d+8bUVPbTcfnPpZw/fVz1TfAPFeNEnT16adgypXdaZfz/GqRiH4dX2r1XlcnDLDT+a0hLAv5xChDrgCOAIRtU/ZV0d51HkPK0KyAabe/rmkEt+tZ1bmFP2y82YB3wteSH/vM2ZMcInTtfhu5XFgWvAf+xNLf8v7TAiIagBUMvq6v9BqSftFGttg8H1HLPLHgP29H/ngud97A1XlR5/ZYlm/VfHvepWkEh1sLn5bSiRx/gy5d+rnkne2LjS5s//GoueWARMTC+JbYv7/5Dj+9aVv5xSPNMnTr8jvTxSdqXo6yR/f7mIkcuvCRGn7Bb03MCoIc+Ab52wUj1R9FVgdohYktijwCXk4gu9cfojaYcRCUlL82qYN57yAlV0jdv43feONhxc/lW/xTjmR3ffVvrI5RcV9fD/buzBtBNIbTEw62r/NiUeAY5CD/9l5WPGlLxp2omYjwPSvvKwDudIouh2K+RvsULHEdoeUKtsbPISfkm1XKfmra0xFv8iUDldJZuuh4DTidjHm6bt4k3TvqeHf6lFWgFQ+x4EPpJ2iDUZFEU077lv2d8MPrrkZR9741Wluxb8Sw/+a+KuBoAEY3NP35xi7gLMDk07S9b4hJbzrTDzLij9Atg77TzAB8E/yKiGx6zQ/mOG9Mzzsa1pNygkAJsz4yCiaPfEhTyqjuX/b7DcBXh8Ksmbmu+1zjP28eYpfw0RS96VAw9jfhPYzcTRn7x5yr/SDiUyENQAqHXGA3jlNwC+/J7doi2HrV/W2cCLHnsonnjLdaWlK1eWc5jaYf5A2hGkNljnGftguT9gbJZ2lqzypsn32/y2A1lYfypm06iMQxZ3AiuwvOH71tl+BnU953hj67K0Q0kCUW5s73NVIo/RNLWqton4+CmPWaHjNvAAVwKWjgW+mbyOvMUrwN9wHsB4AKIHGVz3gI+b9HLawUTSoAZArXPuSTvC2vjm6P3LNvu/sHuZj7/52tKV/3xcs/5rLyYX3Z92CKl+VjjjQ1j8v8CGaWfJur4l1T+wQvsvMPsxzuFpZ+qzOWY/Jm74lnW2T6W55WIP8BQpA8vmtTVAw1EBSv2qKv/83S/ASN4AMPuazZ491U86qXoOcUrPEmAxxmJgMc5C4HnMnqLkT0H0DHHxGT9p+sKUc4pUFDUAap7fVunbbD+x1Xa294hRZQl53TNPeuPN1xSfX/p6OcrXLucBb5z2StoxpLr1nfJ/LTAk7Szyb97U8gRwhBU6Dgb/IfCJtDMB4GyF2UV05SeY+7F9OaVadDccAQwPUOnrVsh/PkCdgWXB/p0bQW7554DfBqqXvjg+mMiK614geh3i3uWbg+KlrIxW0NSypCobRSIVQA2AGudNLU9YV/4FnM3TzvJOThm9fy50zeXFlXzvzltKP33gbl3vty4ibk07glQ3O3vm9uT4HXr4r1jeNPV24NDeLRreBP41YFjauXA+DHafFdoneVPLuWnHkbXkjA1UaadAdarZsdRSA2DQiHu8sVH7L0UqhE7gzYKY29OO8E523WhjO3Sr7YLO/t+14AU/4NILinr4T+S2tANI9bLOtvXIla4ERqWdRdbMm6f81ZumjifHlsDJwMNpZwLWA/uZdea7bO7cQWmHkXdnszu2olJWktQC80/a2R1bpB1DRGqTVgBkgfkfwf477Rir8+29D4rMwjz/F+OYs+6/K279yy2llbGe/ROIofumtENINaufASQ/CXztLKD3tpMnged6f2zP4b4I8+XE1k3kywHI5YxS6Y0lyhsR+WA82hr3bcG2BbYDdgFGDFD2itK37We2wdl0dnyUyJv7zglI7wHcGE9p8U7W2Xa4N7dqL1elqvNjgOCr+TIs1/c5bU87iIjUHjUAssDq/4BX3nW6o4YM48s77hpkFcrTr7/qY2+4qvTnF57VfrDE/C6f0Log7RRSnWxO/sNE1lzGIVYA1+J2BXF0g584+cnQA9jc0zfH6/bEfT+cI4ADqfTDVAJycJqn3gjcaGd3bEEdJ+B+ArBlSpE+BkOus7POOsxPOWVJShnkHVjv341vpJ2j5jjHGuS1z11EQlMDIAN8wqTnrJB/iIGbkVsrJ+61b66hLvlL8KLHHopPvOWPpddXVl6Toyo516YdQaqTtbVFjGroohzby4xncf8pcK43tSwOXv8tvPHUF4AXgD8C7TYnvwcRD5ZzzErlJ059HmiztrbT2LT+cNxOBD464EHM30d9z+9s7tz/0l7iCtM14/0Q7Zx2jBq0M10z3s+E6TqTR0SCUgMgO66gghoAQ+sGccJueyd6SFjUvdybbr4mvuKfj2u9f1C5/007gVSpUUM+D75b4KqLcH7EyO5C3zV2Ay/ufoaoIZWhK4W3thaBS4FLrev0PfG6ieBHM7CHBn6U0pKfAk0DOKasiefGapK6TDw6FnQor4iEpUMAsyJXWafJjt1lz2hEw7ofDn79s//0/X87r6iH/+Ae9eYpf007hFQrnxK2nl3DoNKe3jztJ6k9/Mt/8AmnPuhNU5vIsSXu3wJ7ZiBHt0JH9V0RV6NsbttQ8C+lnaOGfclmzkz/Zg4RqSlqAGSEN057ALwSTnYmMuPk0fuv02uvu1hk8m03lA67an7x+aU6D6oMLkk7gFQnK8wcDbw/WEH3n7Jg+Wf8+FNfDFZTgvLGaa94c8sscsN3xP1YnEcGaOROm922wcCMJe8qHvJFQH8W5bM+w+Ij0w4hIrVFDYBMsflpJwA4fLv3RDtsMLzfB2r97eVF/oHLf1n86QN3x1psWCZeGa8RqUalcLOybmd6c8s3vbVVK3yqgDc2rvTmlnks7N4Dty+C31/mIbckVz+5zGPI2nAfm3aE2hcfm3YCEaktagBkiQ3+OXgp7RiT9j6gX6+72J05D94TH3TZL4oPvLRIz/7lYvyfN0+tiFUiUpU+G6jO5SxcPjVQLRlA3toae/PUy1jQ817cjy3r1gCzk+2ss4av+QPXQVwK8XWm5s9YsjlnbksaB0Jmjn3YCu07pJ1CRGqHGgAZ4hMmPYdZqie8HzBqczt40y3Xevb/mddf9U9eeUlx0q3Xl1aUUu9d1LaY89KOINXJCu0bAQckLuS8SK7uBM38V7feRkDLPLoH7YIxHVhehmE2ZHDP8WWoC9Qlv2XABvRwxHRY6evofeRAMCw6Ou0QIlI79A935kTnpjn6lPcetNavucuefDTe/7cXFG9+/mnN+pffKyzLXZp2CKlWuT0J8fXE/Pve+O1FyfNIJfBJk5b7hGntRNHeGH8KPoB5eR6KPA5wzaAPTV6jwpkfk3aEzHA/2qDfWydFRFZHDYCseXHZ1cDjaQy9/QYb2Oe23XGNr7lXVnQz9oarSkddd0VpcU/3QEQT41yfPHlp2jGkSlkc4orRV1lad2GAOlJhfPyUx3ix+5DeGwMohqtso63r9D3D1esTWfKMXtsrAOycGe8Ddk47R4bsSOGMD6YdQkRqQ83vUZNVeWtrbIX2n4L9dKDHPmX0gVHO3v35/8bnnvLjbry69NzS1zXrP2B8JXXRnLRTSBVz9khexK5VE6p29W3rmGVd+YdwLgcawlSu+xjwYJhab4hXJp5sdavpBgBx7hgI8mX6KrBlIQpVJHPD+SJBZu/9GOCW5HVEJOvUAMiiXM8vKDV8Hxg5UENuVN/A0Tvv8Y5P/93FIj+657bSzL/eGceuZ/+BZb/x46c+m3YKqWa2WeKHAfc7w2SRSuYTpl1rc/JHEfE7QjwUxf4BIHBDO/c6JDyGwmp3C4DNnl1PnX85QKknaZr2OQ/USahUVsjfSpArUn2MzZp1sk+aVI4zNUQkQ7QFIIO8sXUZ+E8GcswJe+wTrTdo8Gp/7uHFL/mHr/hVsePeO/TwP+C8BJZPO4VUvfUTVzB0A0VG+MRpVwCzghQzDgxS562GLlsSoEryvxOVqm7p54GNEtcxv6jWH/4BMPt1oEobUt9zRKBaIpJhagBk1dK6szFeHIihBudyNO2x73+81rzver8DL72g+NdFC2v/TUBFsgu9aerf004hVS9AAyAO8dAl1aLefoAH+Rq0lc2dOyhAnTf52NZuIOkBNFvU8KFtYQ7/M78oSJ1KV1ecD4S5xsgiHbwoIompAZBRPnnyUjw+cyDG+up7dos2GzpslTdCzy19zT911fzipFuvL/Xoer+U+EoG5U5LO4XUAk++39mi1wMEkSrhx019DeOcAKXqWPHqVgHqvF3ShlQD554+KkiSCmJdM0eBfSpAqXt9/PSHAtSpeH78qS8C1weqdqjNPX3zMLVEJKvUAMiyISu6cH+y3MOctNf+q7zOLnvy0Xi/315QvPG5pzTrnyazc/z4yWX/85dMWJG4glt9gBxSTaL4N0Hq1K3cIkidVVjy6yhLtkOAIJXF468S4vwo84zd+GEXByqUo5j7WqBaIpJRagBkmI9t7caiaeUc45PbbG97jdjEAF5d0cPEP11XOuq6K0ovd+sMm1QZL1OKNfsvoQQ4vT9eL3kNqSZ9M8ALEheKy3LifvKDUT3aJ0COCuPfCFAkphiF2hdfHXJ+Gcm3lfQyC/FnICIZpgZAxnnT1MuB/1eu+qfstX8O4I4Xn/cDL72g+LOH70t4tLIE4f59nzj9pbRjSK3w5A0Aj7YOEESqjfFI8hpR+BP3zZ8JUOW9AWpUDCvMHA0kb2oYN/qJU59Pnqh6eOO0V3D+EKjanjbnjH3D1BKRLFIDQMDt2+A9ocvuNWKkfXiLre1Hd99W+ugVFxWfePUVLfmvBO53MXLH89KOITXEoteS14h3CpBEqo2TfKm9x+G3j3iIFQB8JECSyuFxmAPo3DK2/L+PebhVD7lAfxYikklqAAjePPVhnI7QdQ/bZkf70OW/Kv7PXbfGJV3vVymKkGv2MWN08qKE4/E/k9ew9yUPIlXHKSauEeUCbEH5D08EqLGznT1z+wB1UmdtbXWYh9h73t23HD57uuuvBJI3SwGcr4S+/UJEskMNAOm1sCcP/C1kyZl/vTO+Z+ECPflXEvOZ3jzlr2nHkBpjPB6gysE2c2Y59nJLZUt+n7wHeqh6K/MwXw+j0pggddK22eD/AjZLXMe40hunvZI8UPXxSZOWg18eqNwoSks+HaiWiGSMGgACgLe2rsD8OEKc5t1Hs/4V5yGW189IO4TUoJKFaAAMZWjpiwHqSDUxdklcwwn/QNnQ8zAh7m43xhnYmj+wwsU5Lf8PwgIefujaBiAi60QNAHmTT2i5F/fWtHNIWXST4+jeGQiRwBoGPwgkP+Az4pvW1qavSxlhne3vAbZJWMZp8H+EyLNK0bGt3UCIujtT6Dg8QJ3U2FlnDQcP8XtYzMjlVweoU71yG/0/CHDuRa/P2nmzNg5US0QyRG+0ZFULe2YBN6QdQ0Lzqd447YG0U0ht8nGTXgbuT16Ifdl0iO64zoqIsQGqPO/HTQ2/BaDXrYHq/NDa2uoC1Rp49d1fAhqSF7L5PqY12CrDauSNjSuB+YHK1dOz8qhAtUQkQ9QAkFV4a2uMdR8D/lzaWSQQ90u8qaUr7RhS44wbg9Rxn22F9h2C1JKKZV2nbYnbiYkLOQ8FiPMOtf3aQIX2ZJP674aplYYozFLz2DO+/L9PzMXBapm2AYhI/6kBIP/BJ7QuwKIvl+NqQBlwD7KsbnzaISQDnD8GqrQh2DXWedrWgerVPJs9u94K+auts32szc1vmHaeNbF5bQ1QdxGQPGtUxhVr9fV/JMQ5AABm37HOji8EqdXfodva6vq2W/T/13a2vwf8/QFiPM2i7j8HqFP9FnX/GeyZQNUOskJH8nM0RCRT1ACQ1fIJU+8EJqWdQxIwXiYXjfHJk8txRZbIqhZ0/xF4PlC1nbBBt1rhjA8Fqlfbotf3AT6N2c8p8S/rys+3rvb/ttmz69OO9nZ21lnDWd5wOc6Hw1QMNUu/msrjJr2MBdsGUIf5xdbVflygemtk55yxk3XmZzCq4WnMfr5uRexoghxiaL/21tbk54TUgL7PQ7hVADoMUET6SQ0AeUfe1HIuxqy0c8g6WQH+VW+cEvxwLJHV8dbWIjAvYMWtIb7RuvJzreu0LcPVrUFRdOBbftSAcyRul1G37F9WyJ9rXe0fq4TDFa0z/znqe+4FPhmmoj/FhJbyXmvqdn7AaoNwO8+6Oi6y2R1bBaz7Jps1a4h1dRxthfabiOO/Y7QAmwMH9Lch1Hd7wdFBgpW0/H8VUcjPhx1dCX+/RaR6VO+hNDIwJkxrodC+OZgOmqka7lg03idM02GOMsD8PLCphPvaksM5Aeq+YV0dl4JfQEP3zX0ntMu/HfgO//9wYBxu4xjV8LwV8pcSxdfw2qCbB2plkM2cOYz1Sl/H7USMPcNWj85xKO99s7nl8yk1/IQQ2xXe4P4V6jjcCvlf48xjkx3+z8eMWeetBtY1cxRe+gTuh9Fgn8EZvppJ+3pyyw4A1n4ZfuGMDwPbr2uuf/P7/cQWHUL7Fj5+2n1WaL8fbHSAalszcsghwPXJa4lIFqgBIO/Kwa27fjwNKzYHPpJ2HlkbPt0nTNVsiww4b2p5wgod54M3Bi49GPevAF9hecNSK7Rfj9nVxH4PdfaoN04Leg+8tbVFbDxkCwb5HsTsTd2Qfcv9nJnQQWvxMVsAJxFHJzGs1GOF/G1gd+HxQ+SiB7HlD3lj67KkQazQvhGx7UXERzE+zDDehzO0DJ+/Hiw6L3TRt/PG1mXW2X4BZicHLj0UGIcxjkVPLLZC/nac+3r3hseLiexlsMV4XCL2OiJbH2wQ2CjMNwc2w9kV2IveP1uwNazUj/gg/WkAeHxMiMX/uOnr0eq4/RLjjCC1Ij8GNQBEZC2pASBr5JMmLbe5bYdTargS+GDaeeRdmP3QJ0z/cdoxJMNKtJHj6/Q+4JTDMLDP43weMyiBFfIvAI+ALQBeAX8d8+U4b7kezjYAy735Q/fhWN8Tk7kRMxJjU4xtGNWwKfggnL6J1Mp9+O+7B7y/B7zVA4eAH4IZxA40YIX8S8CL4AvBngN7Hec1jGLvobDe1yCw9XofRn0DjDrcN8dsW5xtwTZ4c3NhWT9tdpZPmLygnCO8qS5up5Q7nvK9pjcCPo3xad540Tm8+d/RW5/CE6x5cP/A2n7o/2/v3mP9rus7jr8+v0Npi8wFrUxRJ+JcnEAMiZcAAAz4SURBVGKiThPHVLYYweG8spoZNTNe6jkHamCjPQWSnVSn4wCLJJXCTvyDZU7/cHPihXndnGxzRuNQcWZzzqIBFNuuyqWn5ZzfZ3+ciqgtvX17vqe/z+ORnNCkh8/n3dPT9vye5/v5fsvs5pNSVv3BEe70YMNk/gMdrDN6huX9GatXJBk76Pse3Pll6+YL6uT0PR2sBYw4AYBDUtdN31eu2fyqrFz1ySTP7Hse9qPk3XV84zv6HoO21Qs33lGum3lnkncu4baPWXx70Cujur9vXT7o5x/8wv6BF/pZzq/19+/+vc9JJzdpS5I8cvHtQR+Mn1n5516IPvCfstQftzuzcuk+v+q6y+4s1125JalTS7XnsVHOKkk5pIQwXP3KpD786PesN9fJy7u64/1IqRduvKNsnfnHlLyog+UelrL6/CR/1cFawIhz0xAOWb1oelf2zJ2bki/0PQu/4Ko6PnWcf3HKyFhzxkwO51JjjkI50Pn/UVWTMlnfuPHug79rl4YzSe5c2j0794hcO/PUQ3rP2tGd5V3+/9AG5a+7W8zTAIBDIwBwWOpF07tyz9h5ST7T9yw84O11YuryvoeAn6hr1y6k1Ncn2dX3LCOv1kM5/z9CytV1YuOHl3rXOrHp/5K8Zan37dzYwY/x7Xvqxgs72G1PSv3bDtYZXcPdf5+kqxty/k6ZnfnVjtYCRpgAwGGrl1xyb1bPvSrVP+z9qven1nV1YurP+p4Efl4d37QtGbwsye6+Zxlxz+l7gCVTy025a/dlvW0/MfXxpLy3r/07cSj3Aahjr0sX59JrbtoXTjiAxTP79UMdLTfIfOnmsY3ASBMAOCL1DdNzmdz02pTizHkfSu5Ozfl1ctMNfY8CB1InNtycMnh1kvm+ZxlF5borzkhyat9zLI3yiZy0+/w6Pd3v59Lq3euTenOvMxyVcgg38h28rpOtOn3W/QireV9na5X6R6W7e4IAI0oA4IjVpNbxje9IresW7xDNkqj121nIC+rkpk/0PQocTB3f8LEMhi9PssRnthtQm/nu//syv/oV9Q3Tc30PUt8wPZcTV74iyX/2PcsReuK+S/z3q/zllc9O6pkd7LMrq/Z8vIN1Rt+jnvTZJHd0tNqTc92VjR0LAg6XAMBRq5Obbkgde36SbX3PMvJKbkrJWfWCqW/0PQocqvrWS2/KQn47/o7o1qCM+hf6e1PK+jox9fq6fv2yicz1TRfvTJk/J8ktfc9yRIZjB74KYNjVzf/yoeUQbI4Hde3ahSTv73BFNwMEHpIAQCfq5IZbMjZ3VpJP9T3LiJpPzZ9mfOqVzlRyPKoXTn09Y3lGkuuSDPueZyTUkX4CwJdS6nPr+Mb39D3I/tTxy29PnXt+Uj/W9yyHrZT93gegfHDziUle08keLv8/TGMdPg0gf1i2bFnZ4XrAiBEA6ExdN709E1MvTepkkvv6nmd01NtShi+qk1NXHNLzm2GZquumflQnpiZT8/wkX+x7nuNf/XFGL6ZsT3Jh7pp7bh3f9B99D/NQ6uT0PVnzpFek5NIkx8t3uxcO+DPbV5+XZE0He9yeH+z5XAfrNKNOXPK1JF/taLlTMrb7pR2tBYwgAYBO1aTWiU3vTVl4Xmpn/5g1qtaU3JC7B8+q45f+a9/TQFfq5NS/1Ymp56bkxUnxuX2E6sTUeanzpyd1U1K/1vc8R+n7KfWS3Dt2ep2YurZOTx8XYaOuXbtQx6euSMozUvL5vud5CLen1ndkLGfUiam37fc9ameXjn/gePn9W1ZK7e4qgOIYAHBgJ/Q9AKOpjl92a9m8+bdy6qqJJG9P8rC+Zzqu1Pqd1MGF9YKNn+57FDhW6vjUJ5N8smy96hkpwzcmeW2SR/Q8Vhe+m1puTcnXF1+Yj92aEx7+zWOxUZ28/HtJZpLMLD4VoLwkye8nOTvJcr8MeCEpn04d3pCT9tx4PJ8ZrxMb/yvJ2eX6mXOTXJaaF/Q9U5L/SfLh1NyYR53xhX1nzferzP7FmpS8pJNd68Dl/0difvCBjNWZdPEIxuTF5fqrT63jl9zVwVrAiBEAOGb2Pa5pS5m96qYsLFyTlHP7nmn5q3uSck32rHxXvfhiz09fKqV8NMkvH9Uaw3ypm2HaUyc33JLkbWXLlg0Zu/fslPJ7Sc5L8us9j3Ygd6dkW2q2JfveatmWMrwte1Z9u1500a4+hqoTm/43yZYkW8rWzScnq89J6ktS8rtJntjHTPtxT0o+m1o/kbLw0Tp++e19D9Sln0atmbNSsjbJy5KcsUTbzyfli0m9KcPceFg3i10Y/kZSbjzqCWrdue/PM4epXrjxjnLdzExSntzNivNPTXJ0AaDkG6nlg0c9yimnuCJkKZX6lWRwdL9vpd7b0TQsQ6VWR4pZGuXad70wg7Grkzyt71mWqY9nxdgf1zdf8p2+B4HloLznytMylmcn9TlJfjOLQeAJOTbx+t4sfrH8g6RuT8oPU/ODpN6VwWB7hsMfZqzcmRNO/F5908U7j8H+x1TZ+s7Hp5xwdpKzkjwlix/LAz4OriN7k3wrqV9JGXw5w/rlPGruy3Xt9N5jvO+yUq6deVpKOTslz0ypz0rNmUlO7GDpO5LcmpJbksHNGd73uTo5fU8H6wIwwgQAllSZnV2RhZ1vSs2mlHJa3/MsE/+SDKfrxKU39z0ILHdldnZF6o9Oz0J9XAb1V5KyJsPhmpTBqpThL6UOfi4O1PuS8pNHyP0ope5KsiMLZUdK2ZEThjuTue113XRzNy4tWzefnMHKJ6cOHp/kkclwTVJOXfxxOTmpJ+Wnxwgenp+9NHnf00jqXJIdqYPtKdmR5Pspw9uysOLb2X7P95wF/0VldnZF7r/7tIztfVwyeGxqOS2ppyRlZepwdcpg1QPvXIdzKYPdKdmdOrwztdyZUu/IsG6rF1y6o8dfBgDHKQGAXpQbNq/K7lVvSeqGpDy673n6Uf89ydvrxKbP9D0JAAAw+gQAelU2bz4xp656dZI/SRtHA4ZJ/iHDhffUCy77bN/DAAAA7RAAWBZKUnL9zDkZ5s0p9bykrOh7po5tT/I3GQxm61s3fKvvYQAAgPYIACw7ZetVj05ZeH1SXpPkzL7nOXL1/iSfSfK+zD/sI3X9+j0H+z8AAACOFQGAZa3M/vlTMl/WpuTlSZ6elNL3TAcxl9R/Ts3fZc+ej9SLp4+7u4UDAACjSQDguFFmr3lMFvaek9RzUvK81Dym75myeKb/myn5pwzrp3LCns+3eDdxAABg+RMAOG6V9179xMwPz9r3jPAzU/P0JKcc213rbUm5NaV+NbV8MXvmvlAvmt51bPcEAAA4egIAI6Vc/+7Hps79WurgCRmUJ2Q4PD2lPCKpj8zis61PyeKzrFckOTmpNSmLL+BL5lKzMyU7UuvOpHw/Nd/NWNmWZFv27v7vun76x7394gAAAI6CAAAAAAANGPQ9AAAAAHDsCQAAAADQAAEAAAAAGiAAAAAAQAMEAAAAAGiAAAAAAAANEAAAAACgAQIAAAAANEAAAAAAgAYIAAAAANAAAQAAAAAaIAAAAABAAwQAAAAAaIAAAAAAAA0QAAAAAKABAgAAAAA0QAAAAACABggAAAAA0AABAAAAABogAAAAAEADBAAAAABogAAAAAAADRAAAAAAoAECAAAAADRAAAAAAIAGCAAAAADQAAEAAAAAGiAAAAAAQAMEAAAAAGiAAAAAAAANEAAAAACgAQIAAAAANEAAAAAAgAYIAAAAANAAAQAAAAAaIAAAAABAAwQAAAAAaIAAAAAAAA0QAAAAAKABAgAAAAA0QAAAAACABggAAAAA0AABAAAAABogAAAAAEADBAAAAABogAAAAAAADRAAAAAAoAECAAAAADRAAAAAAIAGCAAAAADQAAEAAAAAGiAAAAAAQAMEAAAAAGiAAAAAAAANEAAAAACgAQIAAAAANEAAAAAAgAYIAAAAANAAAQAAAAAaIAAAAABAAwQAAAAAaIAAAAAAAA0QAAAAAKABAgAAAAA0QAAAAACABggAAAAA0AABAAAAABogAAAAAEADBAAAAABogAAAAAAADRAAAAAAoAECAAAAADRAAAAAAIAGCAAAAADQAAEAAAAAGiAAAAAAQAMEAAAAAGiAAAAAAAANEAAAAACgAQIAAAAANEAAAAAAgAYIAAAAANAAAQAAAAAaIAAAAABAAwQAAAAAaIAAAAAAAA0QAAAAAKABAgAAAAA0QAAAAACABggAAAAA0AABAAAAABogAAAAAEADBAAAAABogAAAAAAADRAAAAAAoAECAAAAADRAAAAAAIAGCAAAAADQAAEAAAAAGiAAAAAAQAMEAAAAAGiAAAAAAAANEAAAAACgAQIAAAAANEAAAAAAgAYIAAAAANAAAQAAAAAaIAAAAABAAwQAAAAAaIAAAAAAAA0QAAAAAKAB/w/iRyfuW9D9FwAAAABJRU5ErkJggg==;" vertex="1" parent="12">
                    <mxGeometry y="34" width="108.23" height="39" as="geometry"/>
                </mxCell>
                <mxCell id="21" style="edgeStyle=none;html=1;entryX=0;entryY=0.5;entryDx=0;entryDy=0;" parent="1" source="6" target="9" edge="1">
                    <mxGeometry relative="1" as="geometry">
                        <Array as="points">
                            <mxPoint x="600" y="303"/>
                        </Array>
                    </mxGeometry>
                </mxCell>
                <mxCell id="22" style="edgeStyle=none;html=1;entryX=0;entryY=0.5;entryDx=0;entryDy=0;" parent="1" source="6" target="13" edge="1">
                    <mxGeometry relative="1" as="geometry">
                        <Array as="points">
                            <mxPoint x="597" y="576"/>
                        </Array>
                    </mxGeometry>
                </mxCell>
                <mxCell id="23" style="edgeStyle=none;html=1;endArrow=classic;endFill=1;" parent="1" edge="1">
                    <mxGeometry relative="1" as="geometry">
                        <mxPoint x="960.3846153846148" y="355" as="sourcePoint"/>
                        <mxPoint x="961.6153846153843" y="523" as="targetPoint"/>
                    </mxGeometry>
                </mxCell>
                <mxCell id="24" style="edgeStyle=none;html=1;entryX=0.5;entryY=1;entryDx=0;entryDy=0;startArrow=none;startFill=0;endArrow=classic;endFill=1;" parent="1" edge="1">
                    <mxGeometry relative="1" as="geometry">
                        <mxPoint x="981.5238095238096" y="523" as="sourcePoint"/>
                        <mxPoint x="979.9999999999995" y="355" as="targetPoint"/>
                    </mxGeometry>
                </mxCell>
                <mxCell id="32" style="edgeStyle=none;html=1;entryX=0;entryY=0.5;entryDx=0;entryDy=0;startArrow=none;startFill=0;endArrow=classic;endFill=1;" parent="1" source="25" target="6" edge="1">
                    <mxGeometry relative="1" as="geometry"/>
                </mxCell>
                <mxCell id="25" value="user" style="verticalLabelPosition=bottom;html=1;verticalAlign=top;align=center;strokeColor=none;fillColor=#00BEF2;shape=mxgraph.azure.user;" parent="1" vertex="1">
                    <mxGeometry x="76" y="421" width="47.5" height="50" as="geometry"/>
                </mxCell>
                <mxCell id="26" value="" style="editableCssRules=.*;shape=image;verticalLabelPosition=bottom;labelBackgroundColor=#ffffff;verticalAlign=top;aspect=fixed;imageAspect=0;image=data:image/svg+xml,PHN2ZyB4bWxucz0iaHR0cDovL3d3dy53My5vcmcvMjAwMC9zdmciIHhtbG5zOnY9Imh0dHBzOi8vdmVjdGEuaW8vbmFubyIgd2lkdGg9IjIwIiBoZWlnaHQ9IjIwIiB2aWV3Qm94PSIwIDAgMjAgMjAiPiYjeGE7CTxzdHlsZSB0eXBlPSJ0ZXh0L2NzcyI+JiN4YTsJLnN0MHtmaWxsOiM0Mjg1ZjQ7fSYjeGE7CS5zdDF7ZmlsbDojNjY5ZGY2O30mI3hhOwkuc3Qye2ZpbGw6I2FlY2JmYTt9JiN4YTsJPC9zdHlsZT4mI3hhOwk8cGF0aCBjbGFzcz0ic3QyIiBkPSJNMTQgMGg2djZoLTZ6Ii8+JiN4YTsJPHBhdGggY2xhc3M9InN0MSIgZD0iTTE3IDBoM3Y2aC0zeiIvPiYjeGE7CTxwYXRoIGNsYXNzPSJzdDIiIGQ9Ik0xNCAxNGg2djZoLTZ6Ii8+JiN4YTsJPHBhdGggY2xhc3M9InN0MSIgZD0iTTE3IDE0aDN2NmgtM3oiLz4mI3hhOwk8cGF0aCBjbGFzcz0ic3QyIiBkPSJNMCAwaDZ2NkgweiIvPiYjeGE7CTxwYXRoIGNsYXNzPSJzdDEiIGQ9Ik0zIDBoM3Y2SDN6Ii8+JiN4YTsJPHBhdGggY2xhc3M9InN0MiIgZD0iTTAgMTRoNnY2SDB6Ii8+JiN4YTsJPGcgY2xhc3M9InN0MSI+JiN4YTsJCTxwYXRoIGQ9Ik0zIDE0aDN2Nkgzek02IDJoOHYySDZ6Ii8+JiN4YTsJCTxwYXRoIGQ9Ik02IDE2aDh2Mkg2ek0xNiA2aDJ2OGgtMnpNMiA2aDJ2OEgyeiIvPiYjeGE7CTwvZz4mI3hhOwk8cGF0aCBjbGFzcz0ic3QwIiBkPSJNMiA2aDJ2Mkgyem0xNCAwaDJ2MmgtMnpNNiAyaDJ2Mkg2em0wIDE0aDJ2Mkg2eiIvPiYjeGE7PC9zdmc+;fillColor=none;" parent="1" vertex="1">
                    <mxGeometry x="299" y="104" width="43" height="43" as="geometry"/>
                </mxCell>
                <mxCell id="28" value="&lt;font color=&quot;#000000&quot;&gt;Cloud Firewall&lt;br&gt;Rules&lt;/font&gt;" style="sketch=0;html=1;verticalAlign=top;labelPosition=center;verticalLabelPosition=bottom;align=center;spacingTop=-6;fontSize=11;fontStyle=1;fontColor=#999999;shape=image;aspect=fixed;imageAspect=0;image=data:image/svg+xml,PHN2ZyB4bWxucz0iaHR0cDovL3d3dy53My5vcmcvMjAwMC9zdmciIHhtbG5zOnY9Imh0dHBzOi8vdmVjdGEuaW8vbmFubyIgd2lkdGg9IjIwIiBoZWlnaHQ9IjIwIiBmaWxsPSIjNDI4NWY0IiB2aWV3Qm94PSIwIDAgMjAgMjAiPiYjeGE7CTxzdHlsZSB0eXBlPSJ0ZXh0L2NzcyI+JiN4YTsJLnN0MHtmaWxsOiM0Mjg1ZjQ7fSYjeGE7CTwvc3R5bGU+JiN4YTsJPHBhdGggY2xhc3M9InN0MCIgZD0iTTAgMGg4Ljg5djIuMjJIMHptMCAxNy43OGg4Ljg5VjIwSDB6bTAtOC44OWg4Ljg5djIuMjJIMHpNMTEuMTEgMEgyMHYyLjIyaC04Ljg5em0wIDE3Ljc4SDIwVjIwaC04Ljg5em0wLTguODlIMjB2Mi4yMmgtOC44OXpNNS41NSA0LjQ0aDguODl2Mi4yMkg1LjU1em0wIDguODloOC44OXYyLjIySDUuNTV6TTAgNC40NGgzLjMzdjIuMjJIMHptMCA4Ljg5aDMuMzN2Mi4yMkgwem0xNi42Ny04Ljg5SDIwdjIuMjJoLTMuMzN6bTAgOC44OUgyMHYyLjIyaC0zLjMzeiIvPiYjeGE7PC9zdmc+;rounded=0;dashed=1;dashPattern=8 8;fillColor=none;" parent="1" vertex="1">
                    <mxGeometry x="310" y="368" width="42" height="42" as="geometry"/>
                </mxCell>
                <mxCell id="33" value="" style="group;rounded=0;glass=0;" parent="1" vertex="1" connectable="0">
                    <mxGeometry x="1346" y="544" width="180" height="61" as="geometry"/>
                </mxCell>
                <mxCell id="34" value="Vitibrasil Embrapa" style="rounded=0;whiteSpace=wrap;html=1;glass=0;shadow=0;" parent="33" vertex="1">
                    <mxGeometry width="180" height="61.00000000000001" as="geometry"/>
                </mxCell>
                <mxCell id="37" style="edgeStyle=orthogonalEdgeStyle;html=1;entryX=0;entryY=0.5;entryDx=0;entryDy=0;startArrow=classic;startFill=1;endArrow=classic;endFill=1;exitX=1;exitY=0.5;exitDx=0;exitDy=0;" parent="1" target="34" edge="1">
                    <mxGeometry relative="1" as="geometry">
                        <mxPoint x="1111.9999999999995" y="574.5" as="sourcePoint"/>
                    </mxGeometry>
                </mxCell>
                <mxCell id="41" value="&lt;div style=&quot;text-align: left;&quot;&gt;&lt;span style=&quot;font-size: 25px; font-weight: bold; background-color: initial;&quot;&gt;UVA API v1.0&lt;/span&gt;&lt;/div&gt;&lt;font style=&quot;&quot;&gt;&lt;div style=&quot;text-align: left;&quot;&gt;&lt;span style=&quot;font-size: 19px; background-color: initial;&quot;&gt;by Caio Saldanha&lt;/span&gt;&lt;/div&gt;&lt;/font&gt;" style="text;html=1;align=center;verticalAlign=middle;resizable=0;points=[];autosize=1;strokeColor=none;fillColor=none;" parent="1" vertex="1">
                    <mxGeometry x="23" y="25" width="171" height="65" as="geometry"/>
                </mxCell>
                <mxCell id="42" value="" style="verticalLabelPosition=bottom;html=1;verticalAlign=top;align=center;strokeColor=none;fillColor=#00BEF2;shape=mxgraph.azure.sql_database;rounded=0;shadow=0;glass=0;sketch=0;fontSize=25;" parent="1" vertex="1">
                    <mxGeometry x="952.25" y="668" width="37.5" height="50" as="geometry"/>
                </mxCell>
                <mxCell id="43" style="edgeStyle=orthogonalEdgeStyle;html=1;entryX=0.5;entryY=0;entryDx=0;entryDy=0;entryPerimeter=0;fontSize=25;startArrow=none;startFill=0;endArrow=classic;endFill=1;" parent="1" source="13" target="42" edge="1">
                    <mxGeometry relative="1" as="geometry"/>
                </mxCell>
                <mxCell id="45" value="&lt;p style=&quot;line-height: 120%;&quot;&gt;&lt;/p&gt;&lt;div style=&quot;border-color: var(--border-color); line-height: 110%; font-size: 11px;&quot;&gt;&lt;span style=&quot;border-color: var(--border-color); background-color: initial;&quot;&gt;&lt;b style=&quot;&quot;&gt;&lt;font style=&quot;font-size: 11px;&quot;&gt;SQL LITE&lt;/font&gt;&lt;/b&gt;&lt;/span&gt;&lt;/div&gt;&lt;font style=&quot;border-color: var(--border-color); font-size: 11px;&quot;&gt;&lt;div style=&quot;border-color: var(--border-color); line-height: 110%;&quot;&gt;&lt;span style=&quot;border-color: var(--border-color); background-color: initial;&quot;&gt;ML workflow&lt;/span&gt;&lt;/div&gt;&lt;div style=&quot;border-color: var(--border-color); line-height: 110%;&quot;&gt;&lt;span style=&quot;border-color: var(--border-color); background-color: initial;&quot;&gt;+ Failback (future)&lt;/span&gt;&lt;/div&gt;&lt;/font&gt;&lt;p&gt;&lt;/p&gt;" style="text;html=1;align=left;verticalAlign=middle;resizable=0;points=[];autosize=1;strokeColor=none;fillColor=none;fontSize=12;" parent="1" vertex="1">
                    <mxGeometry x="1002" y="658" width="107" height="72" as="geometry"/>
                </mxCell>
                <mxCell id="50" value="VPC" style="text;html=1;align=center;verticalAlign=middle;resizable=0;points=[];autosize=1;strokeColor=none;fillColor=none;" vertex="1" parent="1">
                    <mxGeometry x="352" y="104" width="43" height="26" as="geometry"/>
                </mxCell>
                <mxCell id="51" value="Compute Engine (VM)" style="text;html=1;align=center;verticalAlign=middle;resizable=0;points=[];autosize=1;strokeColor=none;fillColor=none;" vertex="1" parent="1">
                    <mxGeometry x="462" y="198" width="137" height="26" as="geometry"/>
                </mxCell>
            </root>
        </mxGraphModel>
    </diagram>
</mxfile>